<svg fill="none" height="96" viewBox="0 0 96 96" width="96" xmlns="http://www.w3.org/2000/svg"><path d="m0 48c0-26.5097 21.4903-48 48-48 26.5097 0 48 21.4903 48 48 0 26.5097-21.4903 48-48 48h-48z" fill="#fff"/><g fill="#8f7bd6"><path d="m68.3254 28h-40.6015c-1.955 0-3.5088 1.6039-3.5088 3.5088v32.9824c0 1.955 1.6039 3.5088 3.5088 3.5088h40.5513c1.955 0 3.5088-1.6039 3.5088-3.5088v-32.9824c.0501-1.955-1.5538-3.5088-3.4586-3.5088zm-29.0727 3.6091c.852 0 1.5037.7018 1.5037 1.5038 0 .852-.7018 1.5037-1.5037 1.5037-.8521 0-1.5038-.7018-1.5038-1.5037 0-.8522.6517-1.5038 1.5038-1.5038zm-4.6115 0c.852 0 1.5037.7018 1.5037 1.5038 0 .852-.7018 1.5037-1.5037 1.5037-.8521 0-1.5038-.7018-1.5038-1.5037 0-.8522.7016-1.5038 1.5038-1.5038zm-4.6116 0c.8521 0 1.5038.7018 1.5038 1.5038 0 .852-.7018 1.5037-1.5038 1.5037-.8019 0-1.5037-.7018-1.5037-1.5037 0-.8522.7018-1.5038 1.5037-1.5038zm37.3935 31.7293c0 .1505-.1002.2507-.2506.2507h-38.2958c-.1504 0-.2506-.1002-.2506-.2507v-24.9624h38.7469l-.0002 24.9624z"/><path d="m45.8191 59.5789h17.0426c.2506 0 .4512-.2005.4512-.4511v-2.3558c0-.2507-.2006-.4512-.4512-.4512h-17.0426c-.2506 0-.4512.2005-.4512.4512v2.3558c0 .2506.2006.4511.4512.4511z"/><path d="m45.8191 52.6115h17.0426c.2506 0 .4512-.2005.4512-.4511v-2.3558c0-.2507-.2006-.4512-.4512-.4512h-17.0426c-.2506 0-.4512.2005-.4512.4512v2.3558c0 .2508.2006.4511.4512.4511z"/><path d="m45.8191 45.6441h17.0426c.2506 0 .4512-.2005.4512-.4512v-2.3558c0-.2506-.2006-.4511-.4512-.4511h-17.0426c-.2506 0-.4512.2005-.4512.4511v2.3558c0 .2507.2006.4512.4512.4512z"/><path d="m33.1875 59.579h8.8221c.2506 0 .4511-.2006.4511-.4512v-16.2907c0-.2507-.2005-.4512-.4511-.4512l-8.8221.0002c-.2506 0-.4512.2005-.4512.4511v16.2406c0 .3006.2006.5011.4512.5011z"/></g></svg>