<svg fill="none" height="40" viewBox="0 0 162 40" width="162" xmlns="http://www.w3.org/2000/svg"><g fill="#c3b8f2"><path d="m113.139.74218h-9.478c-.503.004258-1.019-.115089-1.211-.7123687h-.422l-.329 3.6894787h.516c.286-1.44592.431-2.10271 1.92-2.10271h2.926v11.10682c0 1.736-.666 1.8255-1.753 1.8255h-.303v.5247h6.53v-.5245h-.303c-.925 0-1.753-.1453-1.753-1.8683v-11.06422h2.892c1.382 0 1.51 1.25822 1.54 2.11986h.512l.362-3.73644h-.46c-.094.622721-.708.74218-1.186.74218z"/><path d="m87.6453 9.30012c1.3316.69172 2.684 1.39418 2.684 3.05238 0 1.4416-1.0493 2.4483-2.6999 2.4483-1.7232 0-3.0327-1.1901-3.4293-3.2502l-.5204.0895.3412 3.1052c1.0834.6099 2.4269.8062 3.3952.8062 2.4354 0 5.0672-1.3224 5.0672-4.2782 0-2.58604-1.8286-3.49964-3.4899-4.32966l-.1613-.08069c-.0725-.03669-.1453-.07327-.2181-.10988-1.324-.66532-2.6652-1.33932-2.6652-2.87149 0-1.71475 1.1474-2.66581 2.7-2.66581 1.6464 0 2.4099 1.12598 2.6573 2.5933l.5374-.07676-.1962-2.789523c-.5674-.11083-1.8554-.341225-2.9942-.341225-2.7853 0-4.7346 1.654918-4.7346 4.214048 0 2.55882 1.7611 3.46837 3.359 4.29361l.1599.08268c.0691.03613.1385.07216.2079.10822z"/><path d="m15.3347 1.26658v-.524637h-4.6152v.524637h.3244c.6441 0 1.5268 0 1.5268 1.59928v7.01213c0 3.02831-1.3476 4.63221-3.90671 4.63221-2.62781 0-3.90302-1.4887-3.90302-4.54678v-7.09756c0-1.59928.93845-1.59928 1.68904-1.59928h.16219v-.524637h-6.065325v.524637h.162189c.763586 0 1.629306 0 1.629306 1.59928v7.43034c0 3.4675 1.88961 5.0884 5.94584 5.0884 3.59139 0 5.33579-1.9493 5.33579-5.96315v-6.55559c0-1.59928.8574-1.59928 1.3693-1.59928z"/><path d="m21.8863 15.0733v-.5247l-.2006-.0009c-1.7317 0-1.9407-1.2885-1.9407-2.73l-.0043-8.62437 9.8783 11.95107.7636-.0031v-11.15344c0-2.50803.9638-2.72159 1.8726-2.72159h.2216v-.519993h-5.1696v.520303h.3628c.55 0 1.8342.20026 1.8342 2.03446v8.11676l-8.7099-10.671523h-4.0265v.520303h.1835c1.1217 0 1.915.57601 1.915 1.95337v8.60735c0 1.4418-.2176 2.7213-1.8936 2.7213h-.2049v.5247z"/><path d="m52.4809 3.22861-3.1518 8.80329-3.7151-9.35794c-.2857-.77194-.0895-1.40738.9214-1.40738h.3838v-.524637h-5.9202v.524947h.1192c.8704 0 1.3566.18756 1.7661 1.23683l5.1863 12.62088h.9088l4.7727-12.74035c.3882-.9852.9085-1.11736 1.352-1.11736h.0898v-.524637h-4.0776v.524017h.2643c1.3009 0 1.6637.46118 1.1003 1.96234z"/><path clip-rule="evenodd" d="m80.1884 4.31626c0-2.40558-1.5739-3.574317-4.7474-3.574317h-6.4151v.524637h.2817c.5286 0 1.5098 0 1.5098 1.66335v10.41587c0 .8871-.8103 1.2028-1.5098 1.2028h-.2817v.5247h6.2275v-.5247h-.2816c-1.015 0-1.7358-.1281-1.7358-1.7447v-4.45709h1.5866l4.2611 6.72649h3.6724v-.5377c-.9725-.051-1.4287-.3881-1.992-1.2538l-3.5146-5.35315.0938-.03405c1.2542-.5073 2.8451-1.53954 2.8451-3.57834zm-6.9527 3.44617.0043-6.34233c.3711-.06005.9555-.0941 1.3863-.0941 1.8339 0 3.0541 1.22446 3.0541 3.11376 0 2.32912-.9855 3.32267-3.2159 3.32267z" fill-rule="evenodd"/><path d="m100.547.741943v.524637h-.2c-.8192 0-1.5698.15352-1.5698 1.26685v10.74837c0 1.1133.7506 1.2668 1.5698 1.2668h.2v.5247h-5.9838v-.5247h.2046c.8146 0 1.5695-.1535 1.5695-1.2668v-10.74837c0-1.11333-.7549-1.26685-1.5695-1.26685h-.2046v-.524637z"/><path d="m40.1678.741943v.524637h-.2046c-.8146 0-1.5695.15352-1.5695 1.26685v10.74837c0 1.1133.7549 1.2668 1.5692 1.2668h.2049v.5247h-5.9842v-.5247h.2006c.8189 0 1.5739-.1535 1.5739-1.2668v-10.74837c0-1.11333-.755-1.26685-1.5739-1.26685h-.2006v-.524637z"/><path d="m159.48 25.2379-.051-3.8048-12.562.0001v.6569h.256c1.02 0 1.966.1961 1.966 1.5909v13.4826c0 1.3948-.946 1.5868-1.966 1.5868h-.256v.6569h13.338l.823-3.9626s-.482-.1023-.601-.1322c-.819 2.9687-2.184 3.1563-5.119 3.1563-1.638 0-3.182 0-3.182-1.7957v-6.1718h3.08c1.646 0 1.979 1.0919 2.073 2.4951l.61-.0085v-5.8776h-.61c-.171 1.4544-.58 2.2948-2.086 2.2948h-3.067v-7.0292h3.575c2.657 0 3.032 1.3563 3.169 3.0198.145-.0427.61-.1578.61-.1578z"/><path clip-rule="evenodd" d="m86.7284 21.4327c3.9795 0 5.9502 1.4672 5.9502 4.4788 0 2.5591-1.9921 3.8513-3.5657 4.4911l-.1154.0473 4.406 6.7091c.7081 1.0877 1.2838 1.5099 2.4953 1.5783v.6695h-4.5979l-5.3488-8.4409h-1.9877v5.5961c0 2.0304.9001 2.1883 2.171 2.1883h.3584v.6565h-7.8141v-.6568h.3584c.8701 0 1.8936-.3965 1.8936-1.5099v-13.0647c0-2.0812-1.2325-2.0812-1.8936-2.0812h-.3584v-.6612zm-2.7597.849-.0043 7.9547h1.5355c2.7981 0 4.0306-1.2455 4.0306-4.1671 0-2.3715-1.5269-3.903-3.8257-3.903-.5376 0-1.2285.0309-1.7361.1154z" fill-rule="evenodd"/><path d="m104.502 21.4287v.6611h-.256c-1.024 0-1.971.1919-1.971 1.5866v13.4826c0 1.3947.947 1.5866 1.971 1.5866h.256v.6568h-7.5072v-.6568h.2516c1.0239 0 1.9707-.1919 1.9707-1.5866v-13.4826c0-1.3947-.9471-1.5866-1.9707-1.5866h-.2516v-.6611z"/><path d="m129.438.741943v.532987c-.823.04705-1.322.60975-1.693 1.1347l-3.639 5.60878v4.57649c0 1.8216.662 1.9537 1.754 1.9537h.302v.5247h-6.53v-.5247h.303c1.135 0 1.753-.2857 1.753-1.7871v-4.40169l-3.949-5.64747c-.602-.86975-1.058-1.44576-2.014-1.44576h-.123v-.524637h5.92v.524637h-.184c-1.134 0-1.215.60572-.733 1.29224l3.062 4.74305 2.705-4.28249c.622-.93382.801-1.7528-.734-1.7528h-.235v-.524637z"/><path clip-rule="evenodd" d="m141.139.435059c-4.125 0-7.354 3.326961-7.354 7.575181 0 4.27376 3.135 7.37486 7.452 7.37486 4.367 0 7.532-3.3142 7.532-7.87386 0-4.16731-3.135-7.076181-7.63-7.076181zm.302 14.199241c-3.433 0-4.994-3.809-4.994-7.3492 0-1.43314.333-6.1036 4.649-6.1036 3.259 0 5.016 3.49752 5.016 6.79042 0 4.48288-1.531 6.66238-4.671 6.66238z" fill-rule="evenodd"/><path d="m150.406 15.0695v-.5204h.205c.819 0 1.57-.1535 1.57-1.2669v-10.74848c0-1.11321-.751-1.26684-1.57-1.26684h-.205v-.520298h10.015l.034 3.028328c-.05.01588-.179.04809-.296.0774-.072.01803-.139.03496-.181.04631-.116-1.22841-.397-2.4056-2.107-2.4056h-3.272v5.60459h2.871c1.185 0 1.356-.93413 1.365-1.68046h.473v4.58935h-.469c-.013-.89572-.222-2.03448-1.694-2.03448h-2.546v5.31018c0 1.2669 1.071 1.2669 2.018 1.2669h.179v.5204z"/><path d="m4.63473 23.4374c-1.86392 1.672-2.94723 4.2952-2.94723 6.9694 0 6.0526 3.69348 9.4734 9.4901 9.4734 2.8492 0 5.3572-1.1133 6.9781-3.2119l-.4692-.883c-1.4417 1.8512-3.3484 2.8534-6.0226 2.8534-4.76009 0-6.72646-4.1967-6.72646-8.6371 0-4.9817 2.43127-8.0827 6.34266-8.0827 3.8086 0 4.9349 2.2093 5.6131 4.6235l.5884-.0764-.1876-4.163c-1.8722-.8744-3.7919-1.2882-6.0863-1.2882-2.5678 0-4.84121.87-6.57297 2.4226z"/><path d="m39.8446 36.0072.5927-11.0984s6.4408 14.4728 6.5005 14.622h.5417c.0641-.1452 6.2145-14.9157 6.2145-14.9157l.55 11.4949.0217 1.2882c0 1.2188-.8734 1.2708-2.0881 1.3432l-.0021.0001h-.0511v.6528h7.46v-.6485c-1.378-.051-2.1072-.1792-2.2136-1.5739l-.6952-11.9214c-.1539-2.5377.2046-3.1691 2.2263-3.1691h.0982v-.6612h-4.9864c-.0637.1452-5.775 13.6232-5.775 13.6232s-6.0439-13.478-6.1034-13.6188h-5.0884v.6521h.2042c1.4331 0 2.2821.8787 2.1883 2.4316l-.7038 11.3624c-.0938 1.6593-.2216 2.7937-2.2604 2.8748h-.2306v.6525h6.0569v-.6525h-.1538c-1.6506-.0641-2.4139-.2773-2.3031-2.7383z"/><path clip-rule="evenodd" d="m107.33 38.7455v.6568l8.441-.0031c2.491 0 4.956-.5927 6.713-2.3372 1.745-1.736 2.751-4.1716 2.751-6.6924 0-2.6955-.912-4.9646-2.631-6.5685-1.749-1.625-4.253-2.3756-7.239-2.3756l-8.035.0031v.6611h.256c1.023 0 1.97.1919 1.97 1.5866v13.4826c0 1.3947-.947 1.5866-1.97 1.5866zm5.276-2.3458.004-14.114c.427-.0428 1.378-.0808 1.826-.0808 5.054 0 7.511 2.7086 7.511 8.6668 0 3.8303-2.064 7.7417-6.607 7.7417-1.928 0-2.734-.3071-2.734-2.2137z" fill-rule="evenodd"/><path d="m140.531 34.0709v4.406c-.674.3067-1.813.4766-2.914.4519-4.768 0-6.905-4.5125-6.905-9.0637 0-4.952 2.529-8.0313 6.705-8.0313 3.097 0 4.47 1.2111 5.216 4.2992l.602-.0341-.286-4.2908c-1.386-.4649-3.579-.8914-5.707-.8914-4.76 0-9.819 2.8874-9.819 9.2131 0 5.9498 3.835 9.7971 9.768 9.7971 2.457 0 4.67-.4178 6.317-.9511l.004-4.9049c0-.9599.512-1.4718 1.48-1.4718h.209v-.6398h-6.91v.6398h.209c1.327 0 2.031.5123 2.031 1.4718z"/><path clip-rule="evenodd" d="m75.5791 31.3196c-1.0109-1.0363-2.2137-1.5356-4.4784-1.7018 2.205-.3541 4.7087-1.4064 4.7087-4.2555 0-2.5721-2.0599-3.9284-5.8051-3.9284l-7.9803.0031v.6567h.3541c.6612 0 1.8937 0 1.8937 2.0816v13.039c0 1.1134-1.0193 1.5312-1.8937 1.5312h-.3541v.6525h8.8037c3.361 0 5.9498-2.2604 5.9498-5.0798 0-1.1818-.4135-2.1967-1.1984-2.9986zm-8.1595-2.0079v-7.2167h1.6253c2.3671 0 3.5656 1.1814 3.5656 3.7192 0 2.2947-1.365 3.4975-3.843 3.4975zm0 7.1103v-6.3254h1.7231c2.8153 0 4.5 1.5653 4.5 4.3293 0 2.4526-1.655 4.2525-3.8429 4.2525-1.8216 0-2.3802-.499-2.3802-2.2564z" fill-rule="evenodd"/><path clip-rule="evenodd" d="m20.4205 36.9413 5.7028-15.5127 1.3564.004 5.8517 15.5898c.4352 1.2328 1.0706 1.7188 1.9961 1.7188h.0557v.6654h-6.9611v-.6654h.1579c1.352 0 1.8853-.563 1.4758-1.8085l-1.4161-3.9538h-5.6601l-1.3093 3.6254c-.5717 1.6977.3241 2.1199 1.642 2.1199h.2389v.6738h-5.4679v-.6738h.0594c1.109 0 1.8556-.6782 2.2778-1.7829zm7.9035-4.8455-2.512-6.9991-2.5167 6.9991z" fill-rule="evenodd"/><path d="m66.2128 3.7746-.0387-3.032657-10.0105.000619v.524638h.2006c.8147 0 1.5693.15352 1.5693 1.26252v10.74428c0 1.1134-.7546 1.2669-1.5693 1.2669h-.2006v.5246h10.6292l.6568-3.1608s-.3841-.0814-.4779-.1061c-.6568 2.3715-1.7401 2.5163-4.0816 2.5163-1.3009 0-2.5337 0-2.5337-1.429v-4.91763h2.4526c1.3136 0 1.5782.87005 1.6506 1.98741l.4863-.00928v-4.67899h-.4866c-.1362 1.15605-.4602 1.82554-1.659 1.82554h-2.4439v-5.60012h2.8451c2.1195 0 2.4182 1.07899 2.529 2.40558.1152-.03436.4823-.12381.4823-.12381z"/></g></svg>