<svg fill="none" height="40" viewBox="0 0 40 40" width="40" xmlns="http://www.w3.org/2000/svg"><path d="m0 20c0-11.04569 8.95431-20 20-20 11.0457 0 20 8.95431 20 20 0 11.0457-8.9543 20-20 20h-20z" fill="#c3b8f2"/><path d="m23.125 25c.375-1.2461 1.1523-2.3086 1.9219-3.3672.2031-.2773.4062-.5547.6015-.8359.7735-1.1133 1.2266-2.461 1.2266-3.918 0-3.8008-3.0781-6.8789-6.875-6.8789s-6.875 3.0781-6.875 6.875c0 1.457.4531 2.8086 1.2266 3.918.1953.2812.3984.5586.6015.8359.7735 1.0586 1.5508 2.125 1.9219 3.3672h6.25zm-3.125 5c1.7266 0 3.125-1.3984 3.125-3.125v-.625h-6.25v.625c0 1.7266 1.3984 3.125 3.125 3.125zm-3.125-13.125c0 .3438-.2812.625-.625.625s-.625-.2812-.625-.625c0-2.418 1.957-4.375 4.375-4.375.3438 0 .625.2812.625.625s-.2812.625-.625.625c-1.7266 0-3.125 1.3984-3.125 3.125z" fill="#4d308c"/></svg>