<svg fill="none" height="96" viewBox="0 0 96 96" width="96" xmlns="http://www.w3.org/2000/svg"><path d="m0 48c0-26.5097 21.4903-48 48-48 26.5097 0 48 21.4903 48 48 0 26.5097-21.4903 48-48 48h-48z" fill="#fff"/><g fill="#8f7bd6"><path d="m40.3821 64.1905h-9.5239c-1.1362-.0013-2.2256-.4532-3.029-1.2567-.8035-.8035-1.2554-1.8928-1.2567-3.029v-23.3105c-.8125.0935-1.5624.4824-2.1068 1.0929-.5443.6105-.8453 1.3997-.8456 2.2176v24.7619c0 .8841.3511 1.7319.9763 2.357.6251.6252 1.4729.9763 2.357.9763h16.9467c-.1032-.2908-.1748-.5919-.2134-.8981-.1025-.8041-.4947-1.5433-1.103-2.0792-.6082-.5359-1.3911-.8318-2.2017-.8322z"/><path d="m69.4276 36.5943v23.3104c-.0013 1.1362-.4532 2.2256-1.2567 3.0291-.8035.8034-1.8928 1.2554-3.029 1.2566h-9.5239c-.8107.0005-1.5935.2964-2.2018.8322-.6082.5359-1.0005 1.2751-1.103 2.0792-.0386.3062-.1102.6073-.2133.8981h16.9466c.8841 0 1.7319-.3511 2.357-.9763.6252-.6251.9763-1.4728.9763-2.357v-24.7619c-.0003-.8179-.3013-1.6071-.8456-2.2176-.5444-.6104-1.2943-.9993-2.1068-1.0928z"/><path d="m65.1449 61.333c.3789 0 .7422-.1504 1.0101-.4184.2679-.2679.4184-.6312.4184-1.0101v-30.4759c0-.3789-.1505-.7423-.4184-1.0102s-.6313-.4184-1.0101-.4184h-9.524c-2.3012-.0017-4.5161.8767-6.1902 2.4552v36.5273c.0233-.0765.0401-.1549.0504-.2343.1888-1.4954.9167-2.8705 2.047-3.8675 1.1305-.9969 2.5857-1.5472 4.0931-1.5477zm-10.476-24.7619h5.714c.5103 0 .9821.2723 1.2371.7143.2553.4421.2553.9865 0 1.4286-.255.442-.7268.7142-1.2371.7142h-5.714c-.5104 0-.9821-.2722-1.2372-.7142-.2552-.4421-.2552-.9865 0-1.4286.2551-.4421.7269-.7143 1.2372-.7143zm0 5.7141h5.714c.5103 0 .9821.2722 1.2371.7142.2553.4421.2553.9865 0 1.4286-.255.4421-.7268.7143-1.2371.7143h-5.714c-.5104 0-.9821-.2722-1.2372-.7143-.2552-.4421-.2552-.9865 0-1.4286.2551-.442.7269-.7142 1.2372-.7142zm-1.4286 7.1427c0-.3789.1505-.7422.4184-1.0101.268-.2679.6313-.4184 1.0102-.4184h5.714c.5103 0 .9821.2722 1.2371.7142.2553.4421.2553.9865 0 1.4286-.255.4421-.7268.7143-1.2371.7143h-5.714c-.3789 0-.7423-.1505-1.0102-.4184-.2679-.268-.4184-.6313-.4184-1.0102z"/><path d="m30.858 28.0001c-.3789 0-.7422.1505-1.0101.4184s-.4185.6313-.4185 1.0101v30.476c0 .3789.1505.7422.4185 1.0101.2679.2679.6312.4184 1.0101.4184h9.5239c1.5073.0005 2.9625.5508 4.0931 1.5478 1.1303.997 1.8583 2.372 2.047 3.8674.0103.0794.0272.1578.0505.2343v-36.5272c-1.6744-1.5786-3.8892-2.457-6.1903-2.4552zm10.476 22.8569h-5.714c-.5104 0-.9821-.2722-1.2372-.7142-.2552-.4421-.2552-.9865 0-1.4286.2551-.442.7269-.7143 1.2372-.7143h5.714c.5103 0 .9821.2723 1.2371.7143.2553.4421.2553.9865 0 1.4286-.2551.442-.7268.7142-1.2371.7142zm0-5.714h-5.714c-.5104 0-.9821-.2722-1.2372-.7143-.2552-.442-.2552-.9864 0-1.4285.2551-.4421.7269-.7143 1.2372-.7143h5.714c.5103 0 .9821.2722 1.2371.7143.2553.4421.2553.9865 0 1.4285-.2551.4421-.7268.7143-1.2371.7143zm1.4285-7.1427c0 .3788-.1504.7422-.4184 1.0101-.2679.2679-.6312.4184-1.0101.4184h-5.714c-.5104 0-.9821-.2722-1.2372-.7143-.2552-.442-.2552-.9864 0-1.4285.2551-.4421.7269-.7143 1.2372-.7143h5.714c.3789 0 .7422.1505 1.0101.4184.2679.268.4184.6313.4184 1.0102z"/></g></svg>