<svg fill="none" height="40" viewBox="0 0 136 40" width="136" xmlns="http://www.w3.org/2000/svg"><g fill="#c3b8f2"><path d="m61.9753 1.00019c-.9516-.877916-2.3425-1.166557-3.5913-.9104628-.6595.1413228-1.2908.4924888-1.6873 1.0475028-.6733.93273-.6082 2.39136.2817 3.16564.5101.4528 1.1242.73323 1.7391 1.01399.4423.20198.8849.40413 1.2895.67075.4035.26809.7795.64837.8711 1.14172.0985.59184-.0762 1.26677-.5644 1.6462-.4369.34003-1.0159.42482-1.5537.40598-.8163-.0531-1.5726-.41626-2.2578-.83937-.152.23794-.3115.47116-.4706.70385l-.0604.08841c1.0681.8779 2.543 1.2462 3.8945.9404.5859-.13186 1.146-.42392 1.5417-.88301.5465-.62011.7512-1.49545.6313-2.30314-.1045-.7049-.5602-1.31302-1.1306-1.719-.4646-.33377-.9846-.56541-1.5048-.79716-.4503-.20059-.9008-.40127-1.3157-.66832-.2672-.17644-.5147-.40855-.6364-.7109-.203-.53788-.0488-1.1991.3983-1.56911.4625-.39142 1.104-.484782 1.6916-.440244.6792.045394 1.319.334034 1.8655.730594.0812-.10552.1655-.20842.2497-.31128.1087-.13259.2172-.2651.319-.40304z"/><path clip-rule="evenodd" d="m98.3999.734632c-.8522-.606404-1.9409-.8222434-2.9704-.6954809-1.1331.1284759-2.2012.7374499-2.8744 1.6607589-.9576 1.2976-1.1948 3.01404-.9345 4.57716.2339 1.38839 1.0321 2.73224 2.3015 3.40117 1.6136.87446 3.8029.57476 5.0705-.77256 1.1374-1.18198 1.5044-2.91725 1.3584-4.51121-.121-1.41066-.7623-2.83759-1.9511-3.659838zm-4.7648 1.349848c.3718-.47364.8968-.82652 1.4809-.97898.8591-.222692 1.8253-.0788 2.5499.44795.5909.4214 1.0038 1.05693 1.2325 1.73956.3109.92931.3229 1.93741.161 2.89755-.1491.81625-.4779 1.63421-1.0912 2.21235-.9499.91218-2.549 1.00896-3.6213.25781-.5533-.37601-.9653-.9353-1.2205-1.54942-.3597-.85308-.4411-1.80208-.3512-2.71683.0839-.82395.3358-1.65562.8599-2.30999z" fill-rule="evenodd"/><path d="m2.14626.184523c.10861-.000239.2173-.000009.32603.000221.27967.000592.55967.001185.83967-.006216.01218 1.176712.01034 2.353422.0085 3.530132-.00166 1.05705-.00331 2.1141.0052 3.17115.00257.57643.1319 1.19397.55416 1.61537.58842.59184 1.49203.74687 2.292.63124.65951-.09164 1.29333-.48392 1.58454-1.09632.21505-.46071.23186-.98131.24801-1.48144l.00037-.01145c.00839-1.03742.00712-2.07483.00586-3.11225-.00131-1.08157-.00263-2.16315.00699-3.244719.30144.005382.60235.004951.90398.004518l.24716-.000236-.00019 1.466707c-.00019.97273-.00038 1.94561.00019 2.91859-.00437.27517-.00289.55083-.00142.82657.00374.69756.00748 1.39569-.08337 2.08811-.0848.66722-.34946 1.33272-.85394 1.79352-.72374.68863-1.76354.92758-2.73824.89078-1.04665-.0283-2.14212-.44111-2.77507-1.30961-.47108-.63895-.55758-1.46119-.56529-2.23119-.00712-1.37239-.00619-2.74444-.00526-4.11657.00052-.77558.00105-1.551188.00012-2.326907z"/><path d="m13.1802.184613-.2406.000069c-.0008 3.268418-.0008 6.535978 0 9.804398l.107-.00028c.3214-.00084.6442-.00169.9662.00371.0025-1.58514-.0045-3.17058-.0116-4.75596v-.00109c-.0049-1.08933-.0098-2.17923-.0115-3.26839 1.5802 2.66629 3.1511 5.33858 4.7133 8.01601.2173.00593.4349.00579.6526.00565.1915-.00011.3832-.00023.5748.00378.0089-1.69099.0076-3.38221.0064-5.07341-.0012-1.57593-.0023-3.15185.0047-4.727567-.2648-.008138-.5296-.007583-.7937-.007029-.0973.000204-.1944.000408-.2915.000178.0017 1.055478.0066 2.110958.0115 3.166438.0075 1.62709.015 3.25418.0108 4.88127-1.0283-1.72004-2.0409-3.45003-3.0535-5.1799l-.0013-.0022c-.5591-.95523-1.1182-1.91043-1.6799-2.863896-.3214-.002055-.6428-.001918-.9637-.001781z"/><path d="m24.0341 9.99489c-.0128-3.27099-.0128-6.54283.0009-9.813819.2783.006118.5576.005681.8367.005244.1117-.000175.2234-.00035.335-.000105.0008 3.26756.0008 6.53598 0 9.80354-.093 0-.186-.00024-.2791-.00049-.2978-.00077-.5959-.00155-.8935.00563z"/><path d="m29.0411.184615h-1.2291c.5173 1.502115 1.0354 3.003865 1.5535 4.505595l.0005.00148.0004.00096.0005.00149.0007.002c.6085 1.76386 1.2171 3.52769 1.8242 5.29202.4514.00085.9036.00171 1.355-.00086.7315-2.08803 1.4656-4.17537 2.1996-6.26267l.0011-.00322c.4146-1.1789.8291-2.35779 1.2433-3.536795-.1423-.000321-.2847-.000281-.4271-.000241-.2373.000067-.4746.000134-.7112-.001472-.9867 2.884708-1.97 5.771118-2.9473 8.659248-.5647-1.69986-1.1265-3.40063-1.6883-5.1014l-.0006-.00185c-.3914-1.18485-.7828-2.36971-1.1752-3.554285z"/><path d="m38.6584.187923c.7824-.003397 1.5649-.00247 2.3474-.001542.9932.001177 1.9865.002355 2.9801-.00531.012.328041.0094.656938.0034.984979-.7785-.00336-1.5572-.00295-2.3359-.00255-.6118.00031-1.2236.00063-1.8353-.00088-.0018.76965-.0015 1.53887-.0011 2.30796l.0003.92791c.4906.00161.9811.00069 1.4718-.00024.818-.00154 1.6367-.00307 2.4552.0071-.0094.31091-.0094.62182.0009.93273-.8285.0206-1.6573.01752-2.4862.01444h-.001c-.4802-.00178-.9605-.00357-1.4407-.00074-.0014.49762-.0008.99524-.0002 1.4928.0009.71062.0018 1.42172-.0033 2.13193.8437.00858 1.6873.00734 2.5311.00611.5883-.00086 1.1775-.00172 1.766.00074-.0017.33575-.0017.67064-.0008 1.00553-.6059-.00028-1.2117.0001-1.8175.00048-1.2117.00076-2.4234.00152-3.635-.00305.0051-3.26584.0034-6.53169.0008-9.798397z"/><path clip-rule="evenodd" d="m47.2327 5.35945c.0017 1.5409.0035 3.08215-.0058 4.62276.2765.00796.5535.00717.8305.00638.1109-.00031.2217-.00063.3326-.00038 0-1.42094 0-2.84274.0009-4.26453.1519.00342.3049.00235.4582.00128.4601-.00321.923-.00644 1.3696.11177.5396.15332.8359.67236 1.0697 1.14087.2571.53401.4952 1.07667.7333 1.61922.2052.46768.4104.93547.6277 1.39738.2851-.00723.5701-.0064.8555-.00558.1202.00035.2404.0007.3608.00045-.1688-.37587-.3354-.7526-.5019-1.12929-.3576-.80874-.7152-1.61727-1.0938-2.41664-.233-.50876-.6364-.99697-1.2231-1.07834.8488-.1259 1.6779-.6655 1.9734-1.49717.3511-1.01153.1353-2.2526-.6758-2.986625-.5019-.482211-1.2145-.638095-1.8869-.673212-.6274-.025075-1.255-.024016-1.8827-.022957-.4442.00075-.8885.0015-1.3326-.00702-.0136 1.726824-.0116 3.453654-.0096 5.180364zm1.1582-.57279c-.0009-1.21966-.0009-2.44018 0-3.65984.2299.00313.4601.00146.6904-.00021.4004-.0029.8011-.00581 1.2007.01649.5456.02826 1.1203.24067 1.4372.70832.3752.58243.3966 1.37983.0463 1.97853-.2407.42311-.6775.7049-1.1417.82138-.564.14364-1.1453.13944-1.7239.13526-.1701-.00123-.3399-.00246-.509.00007z" fill-rule="evenodd"/><path d="m65.325.186462h1.1803c.0009 3.267558.0009 6.535128 0 9.803538h-.0013c-.3936 0-.7863 0-1.179-.00085z"/><path d="m74.3978.186366c-1.7509-.000161-3.5016-.000321-5.2528.000964v.97641c.3605-.00095.721-.00037 1.0816.00021.6102.00099 1.2206.00197 1.8305-.00449.01 1.36762.0079 2.73562.0059 4.10364v.00194c-.0024 1.5777-.0048 3.15544.0113 4.73268.2821-.00996.5652-.00906.8485-.00815.1063.00034.2126.00068.3189.00044.0003-1.06962.0002-2.13936 0-3.20913-.0002-1.87272-.0005-3.74553.0017-5.61799.5807.00154 1.1617.00123 1.7428.00092.3875-.0002.775-.00041 1.1625-.00007-.0009-.325467-.0009-.651796 0-.977267z"/><path d="m77.5182.185542c.1328.000252.2655-.000237.3983-.000726.3187-.001174.6375-.002348.9567.006721.4362.849093.8814 1.693433 1.3266 2.537863l.0005.00107c.3571.67738.7143 1.35482 1.0669 2.0348.5252-.96489 1.0212-1.94591 1.5174-2.92713l.0006-.00113.0004-.00089c.2787-.55108.5573-1.102211.8412-1.650578.4254-.001712.8517-.000858 1.2788-.000002-.6142 1.17049-1.2279 2.34067-1.8424 3.51073l-1.2076 2.29979c-.0672.10976-.0662.23833-.0653.36247l.0002.01696c.0025.72284.0023 1.44567.0021 2.1685-.0001.48141-.0002.96282.0004 1.44424-.0976 0-.1953.00032-.2929.00064-.2929.00096-.5854.00193-.877-.00578.0004-.33417.002-.6685.0036-1.00291v-.00108c.0046-.95493.0091-1.91124-.0131-2.86484-.5644-1.11258-1.1471-2.21657-1.7299-3.32069-.458-.86785-.9162-1.73578-1.3655-2.608028z"/><path d="m108.82.186462h-5.21v9.803538h1.171v-1.54586c.001-1.03018.001-2.06081 0-3.09125.491-.00232.982-.0013 1.473-.00027.775.00162 1.55.00324 2.325-.00829-.008-.31263-.008-.62611.001-.93959-.736-.00895-1.471-.0075-2.207-.00606-.531.00104-1.062.00208-1.593-.00079.002-.77003.002-1.53962.001-2.30941v-.92475l1.347.00019c.897.00019 1.795.00038 2.692-.00019 0-.325468 0-.651796 0-.977268z"/><path clip-rule="evenodd" d="m9.91044 18.6792c3.00886-.3134 6.16686.561 8.46396 2.561 1.3182 1.1314 2.34 2.6055 2.9387 4.2371 1.1271 3.0843.7905 6.6824-.9328 9.4841-1.2085 1.9836-3.1099 3.5202-5.2854 4.327-3.4423 1.2813-7.52443.8274-10.52562-1.3224-2.04875-1.4475-3.52879-3.6701-4.072669-6.1189-.71518-3.1785-.003428-6.6944 2.059029-9.2434 1.77982-2.2432 4.51378-3.6538 7.3548-3.9245zm.25266 1.0321c-1.13743.1371-2.23889.5773-3.14165 1.2848-1.13315.8787-1.94255 2.1172-2.46758 3.4388-.71946 1.8192-.95586 3.8029-.85393 5.7489.08565 1.6359.41368 3.2804 1.13572 4.7604.60811 1.2531 1.53399 2.3768 2.74081 3.092 1.3173.7957 2.91293 1.0544 4.42983.8736 1.182-.1379 2.3297-.6012 3.2539-1.3549 1.1168-.8985 1.9083-2.1464 2.4187-3.474.7238-1.8895.9353-3.9468.7932-5.9553-.1191-1.6462-.4925-3.2975-1.2745-4.7604-.6553-1.2257-1.6351-2.304-2.877-2.9498-1.2651-.6724-2.7443-.8737-4.1575-.7041z" fill-rule="evenodd"/><path clip-rule="evenodd" d="m84.8438 21.3223c-2.3228-2.0728-5.5613-2.9764-8.6344-2.6346-2.5935.2672-5.0945 1.4757-6.8478 3.4149-2.1361 2.3074-3.0645 5.5929-2.6731 8.6909.3161 2.698 1.7447 5.2452 3.8971 6.9051 2.7571 2.1644 6.56 2.8128 9.92 1.8998 2.4282-.6484 4.6174-2.1807 6.0178-4.274 1.9434-2.8796 2.3528-6.7124 1.1255-9.9543-.5893-1.5502-1.5597-2.9523-2.8051-4.0478zm-10.9992-.6432c.8085-.5285 1.743-.8523 2.7005-.9688 1.4287-.1713 2.9259.0403 4.2003.7298 1.218.6484 2.179 1.7113 2.8256 2.9198.7983 1.4878 1.1726 3.1708 1.2848 4.8461.1345 2.0419-.0968 4.1335-.8642 6.0401-.5567 1.3764-1.4278 2.6611-2.6475 3.5305-1.0783.7794-2.4093 1.1708-3.7326 1.1862-1.3764.0309-2.7742-.3203-3.9219-1.0929-1.2069-.7999-2.0968-2.011-2.6629-3.3318-.7383-1.7181-.9927-3.6084-.9687-5.4679.0317-1.7901.364-3.5956 1.1289-5.2229.5927-1.2591 1.4774-2.4102 2.6577-3.1682z" fill-rule="evenodd"/><path d="m26.8403 18.9595c1.7312-.0002 3.4626-.0003 5.1942.0007-.0011.1674-.0015.3348-.0019.5023l-.0007.2505-.3486.0721c-.5356.1107-1.0713.2215-1.6076.3271-.0227.0058-.046.0113-.0696.0168-.147.0346-.3043.0717-.3929.2016-.0341.1652.0612.3077.1499.4404.0162.0242.0321.0481.0471.0718.7227 1.0308 1.4435 2.0629 2.1642 3.0951l.0056.0081c.8422 1.206 1.6844 2.412 2.5298 3.616.0591.1576.2021.072.2552-.0376.5986-.8367 1.1978-1.6728 1.797-2.509 1.0134-1.4142 2.0268-2.8284 3.0371-4.2446.1362-.1516.209-.4299-.0462-.5027-.4586-.159-.9324-.271-1.4059-.3829-.2358-.0558-.4716-.1115-.7054-.173-.0017-.251-.0017-.5019-.0017-.7529 1.6233-.0005 3.2466-.0004 4.8701-.0002l2.4359.0002-.0007.2524c-.0004.1676-.0007.3358-.0019.5039-.2973.0823-.5982.1524-.8992.2226-.5261.1226-1.0523.2452-1.559.4326-.6387.2368-1.0579.7821-1.4591 1.3042-.0356.0463-.0711.0925-.1065.1382l-1.1872 1.4949c-1.4074 1.7721-2.8147 3.5441-4.2199 5.3177 1.33 1.7494 2.6581 3.5001 3.9863 5.2509l.0021.0028.0042.0055.0113.0148c.8093 1.0668 1.6186 2.1337 2.4284 3.2003.346.5027.7683.9867 1.3584 1.2008.44.1608.894.2756 1.3481.3904.2717.0687.5433.1374.812.216 0 .2484 0 .4976.0043.7469-1.8343.0062-3.6689.0052-5.5032.0042-1.196-.0007-2.3921-.0013-3.5877 0l-.0007-.2482c-.0004-.1664-.0008-.3327-.0019-.4986.3006-.0705.6044-.1287.9082-.1868.4673-.0895.935-.179 1.3906-.3134.2681-.0874.1277-.3906.006-.5448-.9922-1.4027-1.9875-2.8031-2.9828-4.2036-.4979-.7005-.9957-1.4011-1.4932-2.1019-.084-.1146-.1652-.231-.2465-.3475-.1641-.2353-.3286-.4711-.5141-.6898-.9951 1.3309-1.9664 2.6805-2.9377 4.0301-.5946.8261-1.1893 1.6524-1.7894 2.4742-.0839.1247-.1746.2451-.2653.3655-.1629.2161-.3258.4323-.449.6726-.0771.2111.1752.2968.3352.3511l.0254.0086c.3266.0888.6555.1684.9844.2479.3119.0755.6241.151.9342.2343.0008.251.0008.5028-.0095.7538-2.4306-.0069-4.8604-.0043-7.2901-.0017h-.003c-.0034-.251-.0034-.5019-.0017-.7529l.2948-.0722c.5896-.1442 1.1793-.2884 1.7651-.4477.5464-.149 1.0552-.4497 1.4158-.8916.945-1.1785 1.8865-2.3604 2.8279-3.5422 1.1548-1.4497 2.3101-2.8999 3.4717-4.3437-1.2032-1.6137-2.4161-3.2201-3.6291-4.8266-.7332-.9711-1.4666-1.9425-2.1977-2.9153-.0754-.0975-.1492-.1981-.2234-.2992-.3502-.4768-.709-.9655-1.2721-1.198-.4985-.2016-1.0207-.333-1.5424-.4644-.2473-.0622-.4947-.1245-.7393-.1942-.0026-.251-.0026-.5019-.0017-.7529 1.2983.0004 2.5967.0003 3.895.0002z"/><path d="m58.1388 18.9589c-3.3529-.0005-6.7056-.0009-10.0582.0018.0008.2493.0008.4985.0008.7478.2895.0749.5807.1437.872.2126.5112.1208 1.0226.2416 1.5245.3955.3812.1062.6287.4805.5944.8736.0028 2.9063.0023 5.8127.0019 8.7188v.0143c-.0005 2.4556-.0009 4.9112.0007 7.3666-.0034.2587-.0077.5499-.1893.7537-.2008.2189-.4958.2979-.7743.3726l-.0796.0214-.6501.1574c-.4332.105-.8663.2101-1.3002.3129 0 .2492 0 .4993.0009.7503 1.1913-.0024 2.3828-.0012 3.5743-.0001 1.8975.0018 3.795.0036 5.6922-.0085-.0086-.2484-.0094-.4959-.0094-.7426-.3761-.0872-.7536-.1687-1.1312-.2501-.4932-.1065-.987-.213-1.4769-.3323-.3948-.0891-.6381-.4831-.609-.8754-.0037-1.5731-.0031-3.1463-.0026-4.7195.0004-.9681.0007-1.9361.0001-2.9042l1.6349-.0002c1.0898-.0002 2.1794-.0004 3.2694.0002.3306.0017.6869.0351.9584.245.2578.1884.3889.495.4651.7956.0717.281.1417.5624.2118.8438l.0004.0015c.1015.4076.2031.8159.3094 1.2223.2143-.0019.429-.0024.6442-.0028h.0012l.2154-.0006c-.0024-.9129-.0014-1.8257-.0004-2.7386.0015-1.3877.003-2.7754-.0073-4.1631-.2861.006-.5713.006-.8556.0043-.1141.3859-.2262.7722-.3381 1.1584-.0486.1675-.0971.335-.1459.5024-.1062.364-.2595.7511-.5935.9635-.3131.1995-.687.1956-1.0481.192-.0824-.0009-.1642-.0017-.2444-.0001-.7464-.0004-1.4926-.0004-2.2388-.0004-.7461 0-1.4921 0-2.2381-.0005-.001-1.1482-.0005-2.2964.0001-3.4446.0008-1.8188.0017-3.6378-.0036-5.457 1.2114-.0079 2.4229-.0067 3.6345-.0056.9087.0008 1.8174.0017 2.7259-.0013.2998-.0017.6244.012.878.1927.2826.2022.4171.5396.5199.8591.1237.3945.2477.7891.3718 1.1836.2055.6539.4111 1.308.6157 1.9624.2878.0008.5756.0008.8651 0-.0009-1.7259-.0009-3.4518 0-5.1785-1.8629.0003-3.7257.0001-5.5884-.0001z"/><g clip-rule="evenodd" fill-rule="evenodd"><path d="m90.7001 18.9592h8.3152c1.5557-.0005 3.1387-.001 4.6407.4471 1.566.4539 2.884 1.6582 3.497 3.1656.572 1.3524.532 2.9609-.175 4.256-.719 1.3541-2.042 2.2946-3.461 2.805-.159.063-.323.1095-.486.1559-.204.0578-.407.1155-.599.2047.659.3522 1.129.9375 1.59 1.5113.031.0393.063.0787.094.1178.022.0272.044.0543.066.0814 1.067 1.3576 2.106 2.7361 3.145 4.1148.433.5747.866 1.1499 1.301 1.7231.34.4497.835.7794 1.39.8942.441.0937.881.1916 1.321.2896.271.0605.544.1211.816.1806-.001.2484 0 .4976.005.7469-1.698.0077-3.395.0094-5.092-.0009-.556-.0017-.941-.4565-1.241-.8668-1.608-2.2457-3.213-4.4923-4.818-6.7398l-.019-.0249c-.478-.6421-1.0093-1.3555-1.8371-1.5348-.5197-.1033-1.0486-.094-1.5771-.0847-.278.0048-.5559.0097-.8322-.0018-.006 2.3554-.0052 4.7108-.0009 7.0662-.0257.3965.233.7828.6304.865.4915.1181.9858.225 1.4802.3319.3695.0799.7398.16 1.1081.2446l-.0006.2524c-.0004.1668-.0008.3336-.0019.5004-3.0843-.0025-6.1686-.0043-9.2528.0009-.0077-.2518-.0078-.5028-.0052-.7537.2853-.0734.5725-.14.8598-.2067.5175-.12 1.0352-.24 1.5419-.3997.3665-.1045.6106-.4608.5858-.8403.0055-4.9286.0038-9.8586.0022-14.7874l-.0005-1.487c.0283-.388-.2081-.7632-.5893-.8685-.5108-.1559-1.0313-.2787-1.5517-.4015-.2832-.0668-.5666-.1336-.8482-.2058-.0017-.2509-.0017-.501-.0008-.7511zm6.04.9824c.0016 1.1865.0007 2.3729-.0002 3.5594-.0016 1.9766-.0031 3.9532.0071 5.9298.4621-.0075.9242-.0064 1.3864-.0053.4379.0011.8762.0021 1.3141-.0041.8935-.0146 1.8085-.1542 2.6055-.5799.618-.3263 1.136-.8385 1.458-1.4603.451-.8471.587-1.8235.592-2.7734.005-1.0295-.276-2.0804-.901-2.9087-.721-.967-1.871-1.5682-3.062-1.6907-.7675-.0803-1.5382-.0736-2.3084-.067-.3641.0031-.7281.0062-1.0915.0002z"/><path d="m121.717 18.9592h-7.893c-.001.251-.001.5019 0 .7529.358.084.714.1714 1.071.2588.309.0758.618.1516.928.2251l.035.0094c.268.0716.554.1478.755.3529.2.2099.202.5208.204.7931-.002 2.3488-.001 4.6974-.001 7.0459.001 3.0212.001 6.0422-.003 9.0633.032.4119-.264.7717-.657.8659-.517.1472-1.04.2712-1.563.3951-.256.0607-.513.1214-.768.1847-.004.2519-.003.5028.005.7555 1.49-.0091 2.981-.0062 4.472-.0033 2.166.0042 4.331.0083 6.496-.0241 1.628-.0754 3.28-.2595 4.808-.8548 1.441-.5816 2.747-1.5212 3.701-2.7537 1.63-2.1035 2.172-4.8692 1.996-7.4815-.187-2.6946-1.351-5.3789-3.438-7.1399-1.225-1.0509-2.731-1.7498-4.307-2.0735-1.714-.3784-3.474-.3753-5.221-.3722-.207.0003-.413.0007-.62.0004zm-1.851 6.9077c-.001-1.9753-.001-3.9507-.001-5.9261.595.0127 1.192.0071 1.789.0015 1.54-.0143 3.083-.0287 4.599.27 1.211.2278 2.33.8539 3.181 1.7421.996 1.0261 1.634 2.3546 1.997 3.7275.419 1.6017.515 3.2753.419 4.9241-.103 1.6025-.427 3.2238-1.201 4.6448-.65 1.1862-1.648 2.2226-2.911 2.7459-1.224.5131-2.565.639-3.877.6767-.653.0103-1.305.0092-1.958.0082-.375-.0006-.751-.0012-1.126.0003-.026-.001-.052-.0019-.078-.0028-.242-.0081-.51-.0171-.678-.2087-.143-.1862-.148-.429-.153-.6562-.001-.0321-.002-.0638-.003-.095.001-3.9507.001-7.9015.001-11.8523z"/></g></g></svg>