<svg fill="none" height="33" viewBox="0 0 32 33" width="32" xmlns="http://www.w3.org/2000/svg"><path d="m0 16.251c0-8.83658 7.16344-16.000023 16-16.000023 8.8366 0 16 7.163443 16 16.000023 0 8.8365-7.1634 16-16 16h-16z" fill="#c3b8f2"/><path d="m16.2989 8.25098c-.1461 0-.2556.06869-.3232.12879-.0675.06017-.1094.12119-.1482.1842-.0776.12603-.1373.26764-.1978.43175-.1213.32827-.2366.74142-.3483 1.16218-.1119.4208-.2199.8483-.3145 1.1787-.0474.1652-.0912.3067-.1281.4051-.0145.0385-.0318.0687-.0446.0914-.0229.0132-.0535.0303-.0913.0446-.0985.0369-.24.0807-.4051.1281-.3304.0947-.7559.2027-1.1766.3144-.4206.1118-.836.2271-1.1643.3484-.1642.0606-.3057.1201-.4317.1978-.063.0389-.1219.0807-.1821.1482-.0602.0676-.1302.177-.1302.3231 0 .1462.0701.2556.1302.3232.0602.0675.119.1093.1821.1482.126.0777.2676.138.4317.1986.3283.1213.7436.2358 1.1643.3476.4207.1117.8461.2198 1.1766.3144.1652.0474.3067.0919.4051.1288.0381.0144.0691.0302.092.0432.0125.023.0296.0535.0438.0921.0369.0985.0808.24.1281.4051.0947.3304.2027.7566.3145 1.1773.1118.4208.227.8339.3483 1.1622.0607.1642.1202.3057.1979.4318.0388.063.0807.124.1482.1842.0675.0601.177.1302.3231.1302s.2556-.0701.3231-.1302c.0676-.0602.1095-.1212.1483-.1842.0777-.1261.138-.2677.1986-.4318.1213-.3283.2358-.7414.3476-1.1622.1119-.4207.2198-.8468.3145-1.1773.0474-.1652.0919-.3067.1288-.4051.0145-.0384.0311-.0684.0438-.0914.023-.013.0531-.0295.0914-.0439.0984-.0369.2399-.0814.405-.1288.3305-.0947.7559-.2027 1.1766-.3144.4207-.1118.8361-.2264 1.1643-.3476.1641-.0606.3057-.1209.4318-.1986.0629-.0389.1226-.0807.1827-.1482.0602-.0676.1302-.177.1302-.3232 0-.1461-.0702-.2555-.1302-.3231-.0601-.0675-.1197-.1093-.1827-.1482-.1261-.0777-.2677-.1372-.4318-.1978-.3282-.1213-.7435-.2365-1.1643-.3484-.4207-.1117-.8461-.2198-1.1766-.3144-.1652-.0474-.3066-.0912-.405-.1281-.0383-.0144-.0684-.0314-.0914-.0446-.0125-.0227-.0295-.0528-.0438-.0914-.0369-.0985-.0814-.24-.1288-.4051-.0947-.3304-.2027-.758-.3145-1.1787-.1118-.42076-.2263-.83391-.3476-1.16218-.0605-.16418-.1208-.30572-.1986-.43175-.0388-.06301-.0806-.12403-.1483-.1842-.0675-.06018-.1769-.12879-.323-.12879zm-5.5811 7.93362c-.1405 0-.2435.0653-.3051.1202-.0617.055-.0988.108-.1317.1612-.0655.1064-.1131.2195-.1612.3498-.0962.2604-.18495.5834-.272.911-.08703.3276-.171.6579-.24391.9125-.03646.1272-.06993.2366-.09717.3094-.00561.0142-.01113.0265-.01796.0382-.01251.0064-.02533.0131-.04022.0187-.07284.0273-.18075.0621-.30802.0986-.25451.0729-.58494.1555-.91244.2425-.32751.087-.65063.1773-.91105.2735-.13018.048-.24477.0948-.35115.1605-.05318.0327-.10553.07-.16049.1317-.05487.0616-.12088.1654-.12088.3058 0 .1405.06601.2435.12088.3051.05488.0616.10723.0975.16049.1303.10638.0656.22097.1123.35115.1605.26042.0961.58346.1864.91105.2734.3275.0871.65792.171.91244.2439.12726.0365.23518.0699.30802.0972.01504.0056.02824.0123.04022.0187.00698.0117.01251.0238.01796.0382.02732.0728.06071.1821.09717.3095.07299.2545.15695.5849.24391.9124.08704.3276.1758.6506.272.9111.0481.1301.0956.2433.1612.3497.0329.0532.0701.1063.1317.1612.0617.055.1647.1216.3051.1216s.2435-.0667.3051-.1216c.0617-.055.0988-.108.1317-.1612.0655-.1064.1124-.2195.1605-.3497.0962-.2605.185-.5835.272-.9111s.171-.6579.2439-.9124c.0365-.1273.0699-.2367.0972-.3095.0056-.0144.0111-.0264.0179-.0382.0126-.0063.0254-.0131.0403-.0187.0728-.0273.1807-.0607.308-.0972.2545-.0729.5849-.1569.9124-.2439s.6506-.1773.911-.2734c.1302-.0481.2448-.0949.3511-.1605.0532-.0328.1063-.0687.1612-.1303s.1202-.1647.1202-.3051-.0653-.2441-.1202-.3058-.1081-.0989-.1612-.1317c-.1063-.0656-.2209-.1124-.3511-.1605-.2604-.0962-.5835-.1865-.911-.2735s-.6579-.1695-.9124-.2425c-.1273-.0365-.2352-.0713-.308-.0986-.0151-.0056-.0281-.0123-.0403-.0187-.0069-.0117-.0125-.024-.0179-.0382-.0273-.0728-.0607-.1821-.0972-.3094-.073-.2545-.1569-.585-.2439-.9125-.087-.3276-.1758-.6506-.272-.911-.0481-.1302-.0948-.2433-.1605-.3498-.0329-.0532-.0701-.1063-.1317-.1612-.0617-.0549-.1647-.1202-.3051-.1202zm11.548.7009c-.1351 0-.2331.0638-.2893.1137-.0561.0501-.0865.0963-.1138.1403-.0543.0881-.0902.1756-.1265.2742-.0729.197-.139.4344-.203.675-.0639.2405-.1243.4826-.177.6663-.0249.0868-.0475.1574-.0654.2066-.0491.0179-.1199.0399-.2066.0647-.1836.0527-.425.1139-.6656.1778-.2405.0639-.4787.1302-.6757.2029-.0986.0364-.1861.0716-.2742.126-.0439.0272-.0888.0582-.1388.1144s-.1136.1541-.1136.2893.0636.2331.1136.2893c.0501.0562.0948.0866.1388.1137.0881.0543.1757.0902.2742.1266.197.0728.4351.1383.6757.2023.2406.0639.482.1251.6656.1777.0868.0249.1574.0468.2066.0648.0179.0491.0405.1201.0654.2072.0527.1837.1131.4251.177.6656.064.2406.1302.4794.203.6765.0363.0985.0723.1853.1265.2734.0272.0441.0575.0896.1138.1396.0561.0501.1541.1137.2893.1137.1351 0 .2331-.0636.2893-.1137.0561-.05.0865-.0955.1137-.1396.0543-.088.0903-.1749.1267-.2734.0729-.1971.139-.4359.203-.6765.0639-.2405.1243-.4819.1769-.6656.025-.0871.0482-.1581.0664-.2072.0491-.018.119-.0399.2057-.0648.1837-.0526.4251-.1138.6656-.1777.2406-.064.4787-.1294.6758-.2023.0985-.0364.1861-.0723.2741-.1266.044-.0272.0888-.0576.1389-.1137.0501-.0562.1136-.1541.1136-.2893 0-.1351-.0637-.2331-.1136-.2893-.05-.0562-.0948-.0872-.1389-.1144-.0881-.0544-.1756-.0896-.2741-.126-.197-.0727-.4351-.139-.6758-.2029-.2405-.0639-.4819-.1251-.6656-.1778-.0867-.0248-.1566-.0468-.2057-.0647-.0178-.0492-.0414-.1198-.0664-.2066-.0526-.1837-.113-.4257-.1769-.6663-.064-.2406-.1302-.478-.203-.675-.0363-.0986-.0723-.1861-.1267-.2742-.0272-.044-.0575-.0902-.1137-.1403-.0561-.05-.1542-.1137-.2893-.1137z" fill="#4d308c"/></svg>