<svg fill="none" height="13" viewBox="0 0 18 13" width="18" xmlns="http://www.w3.org/2000/svg"><path d="m6.75579 8.75458 8.31301-8.313043c.1255-.128485.2762-.229614.4427-.297074.1611-.066222.3337-.1005116.508-.101006.3584.0075506.7001.153363.9537.406874.2535.253627.3993.595259.4069.953749-.0006.18579-.0349.36999-.101.54364-.0593.16066-.1622.30153-.2971.407l-9.27286 9.29058c-.10744.1342-.24905.2368-.40998.2971-.17304.0682-.3576.1025-.54364.101-.17441.0015-.34733-.0328-.50799-.101-.16624-.0678-.31688-.1688-.44265-.2971l-5.403752-5.47502c-.13616-.10423-.23927-.24558-.297075-.407-.0705563-.17243-.10595769-.35735-.10397402-.54364.01175912-.355.15794502-.69232.40883802-.9437.250905-.25153.587845-.39832.942843-.41096.18023-.00718.35836.04047.51097.13665.13369.10101.29708.16933.43967.27331z" fill="#8f7bd6"/></svg>