<svg fill="none" height="39" viewBox="0 0 39 39" width="39" xmlns="http://www.w3.org/2000/svg" xmlns:xlink="http://www.w3.org/1999/xlink"><filter id="a" color-interpolation-filters="sRGB" filterUnits="userSpaceOnUse" height="39" width="39" x="0" y="0"><feFlood flood-opacity="0" result="BackgroundImageFix"/><feColorMatrix in="SourceAlpha" result="hardAlpha" type="matrix" values="0 0 0 0 0 0 0 0 0 0 0 0 0 0 0 0 0 0 127 0"/><feOffset dy="2"/><feGaussianBlur stdDeviation="1"/><feComposite in2="hardAlpha" operator="out"/><feColorMatrix type="matrix" values="0 0 0 0 0 0 0 0 0 0 0 0 0 0 0 0 0 0 0.3 0"/><feBlend in2="BackgroundImageFix" mode="normal" result="effect1_dropShadow_248_961"/><feBlend in="SourceGraphic" in2="effect1_dropShadow_248_961" mode="normal" result="shape"/></filter><g filter="url(#a)"><rect fill="#fff" height="35" rx="17.5" width="35" x="2"/><path d="m25.1504 14.4062v.3829c0 3.8007-2.8711 8.1484-8.1484 8.1484-1.6407 0-3.1446-.4648-4.4024-1.2852.2188.0274.4375.0547.6836.0547 1.3398 0 2.5703-.4648 3.5547-1.2304-1.2578-.0274-2.3242-.8477-2.6797-1.9961.1914.0273.3555.0547.5469.0547.2461 0 .5195-.0547.7383-.1094-1.3125-.2735-2.2969-1.4219-2.2969-2.8164v-.0274c.3828.2188.8476.3282 1.3125.3555-.793-.5195-1.2852-1.3945-1.2852-2.3789 0-.5469.1367-1.0391.3828-1.4492 1.4219 1.7226 3.5547 2.8711 5.9336 3.0078-.0547-.2188-.082-.4375-.082-.6563 0-1.5859 1.2852-2.8711 2.8711-2.8711.8203 0 1.5586.3282 2.1055.9024.6289-.1367 1.2578-.3828 1.8047-.711-.2188.6836-.6563 1.2305-1.2579 1.586.5743-.0547 1.1485-.2188 1.6407-.4375-.3828.5742-.875 1.0664-1.4219 1.4765z" fill="#381e8b"/></g></svg>