<svg fill="none" height="40" viewBox="0 0 40 40" width="40" xmlns="http://www.w3.org/2000/svg"><path d="m0 20c0-11.04569 8.95431-20 20-20 11.0457 0 20 8.95431 20 20 0 11.0457-8.9543 20-20 20h-20z" fill="#c3b8f2"/><path clip-rule="evenodd" d="m20.589 18.5726 3.6026 3.874.0001-.0001-3.6027-3.8741zm-1.1317 11.4274-.0231-11.4763-.0002.0002.0231 11.4761zm-3.6722-7.578-.7851-.8283 4.9883-5.336-.0001-.0001-4.9884 5.3361.7853.8284zm3.172 7.5485-.0205-10.1833-3.1493 3.3646-1.4746-1.5558 5.6755-6.071 5.7033 6.1004-1.5085 1.5466-3.1018-3.3355-.0614 10.1364c5.0438-.5115 8.9802-4.7759 8.9802-9.9607 0-5.5296-4.4772-10.0122-10-10.0122s-10 4.4826-10 10.0122c0 5.1769 3.9244 9.4362 8.9571 9.9583z" fill="#4d308c" fill-rule="evenodd"/></svg>