<svg fill="none" height="96" viewBox="0 0 96 96" width="96" xmlns="http://www.w3.org/2000/svg"><path d="m0 48c0-26.5097 21.4903-48 48-48 26.5097 0 48 21.4903 48 48 0 26.5097-21.4903 48-48 48h-48z" fill="#fff"/><path clip-rule="evenodd" d="m29.7801 30.6667c-3.9815.3129-6.9909 3.5505-7.1847 7.5396-.1598 3.2867-.3098 7.0686-.3098 9.6795 0 2.6409.1535 6.4796.3152 9.7925.1923 3.938 3.1328 7.1538 7.0586 7.5166 4.346.4013 10.6343.8051 18.3405.8051 7.6862 0 13.962-.4018 18.3063-.8021 3.9412-.3631 6.8876-3.5999 7.0771-7.5534.1673-3.4877.3308-7.4786.3308-9.7586 0-2.2557-.16-6.1852-.3254-9.6462-.1914-4.0045-3.2055-7.2619-7.2024-7.5753-4.2779-.3354-10.4481-.6644-18.1867-.6644-7.7586 0-13.941.3309-18.2201.6671zm13.0772 9.5862 13.2572 7.6329-13.2572 7.6329z" fill="#8f7bd6" fill-rule="evenodd"/></svg>