<svg fill="none" height="40" viewBox="0 0 40 40" width="40" xmlns="http://www.w3.org/2000/svg"><path d="m0 20c0-11.04569 8.95431-20 20-20 11.0457 0 20 8.95431 20 20 0 11.0457-8.9543 20-20 20h-20z" fill="#c3b8f2"/><path d="m29.0697 16.2791c-.0005-.6784-.2702-1.3287-.7498-1.8084-.4796-.4796-1.13-.7492-1.8083-.7498h-1.1628v-1.1628c-.0005-.6783-.2702-1.3287-.7498-1.8083-.4797-.4796-1.13-.7493-1.8084-.7498h-9.3023c-.6783.0005-1.3287.2702-1.8083.7498s-.7493 1.13-.7498 1.8083v11.1628c.0005.6784.2702 1.3287.7498 1.8084.4796.4796 1.13.7492 1.8083.7498h1.1628v1.1628c.0005.6783.2702 1.3287.7498 1.8083s1.13.7493 1.8083.7498h9.3024c.6783-.0005 1.3287-.2702 1.8083-.7498s.7493-1.13.7498-1.8083zm-1.3953 11.1628c-.0005.3082-.1232.6037-.3412.8216-.2179.218-.5134.3406-.8216.3412h-9.3024c-.3082-.0006-.6037-.1232-.8216-.3412-.218-.2179-.3406-.5134-.3411-.8216v-1.1628h6.7441c.6784-.0005 1.3287-.2702 1.8084-.7498.4796-.4797.7493-1.13.7498-1.8084v-8.6046h1.1628c.3082.0005.6037.1232.8216.3411.218.218.3407.5135.3412.8217z" fill="#4d308c"/></svg>