<svg fill="none" height="40" viewBox="0 0 40 40" width="40" xmlns="http://www.w3.org/2000/svg"><path d="m0 20c0-11.04569 8.95431-20 20-20 11.0457 0 20 8.95431 20 20 0 11.0457-8.9543 20-20 20h-20z" fill="#c3b8f2"/><path d="m10.476 22.3334c5.2599 8.8888 13.7879 8.8888 19.0477 0-5.2598-8.8888-13.7878-8.8888-19.0477 0zm9.5239 2.8572c-1.578 0-2.8572-1.2792-2.8572-2.8572s1.2792-2.8572 2.8572-2.8572 2.8571 1.2792 2.8571 2.8572-1.2791 2.8572-2.8571 2.8572zm-.9524-13.3334v-1.90481c0-.52643.426-.95239.9524-.95239s.9524.42596.9524.95239v1.90481c0 .5264-.426.9523-.9524.9523s-.9524-.4259-.9524-.9523zm-7.34 2.5781-1.9048-1.9048c-.37202-.372-.37202-.9747 0-1.3467.372-.3721.9747-.3721 1.3467 0l1.9048 1.9047c.372.3721.372.9747 0 1.3468-.186.186-.4297.279-.6734.279s-.4873-.093-.6733-.279zm18.4896-1.9048-1.9048 1.9048c-.186.186-.4297.279-.6734.279-.2436 0-.4873-.093-.6733-.279-.3721-.3721-.3721-.9747 0-1.3468l1.9047-1.9047c.3721-.3721.9747-.3721 1.3468 0 .372.372.372.9747 0 1.3467z" fill="#4d308c"/></svg>