<svg fill="none" height="39" viewBox="0 0 39 39" width="39" xmlns="http://www.w3.org/2000/svg" xmlns:xlink="http://www.w3.org/1999/xlink"><filter id="a" color-interpolation-filters="sRGB" filterUnits="userSpaceOnUse" height="39" width="39" x="0" y="0"><feFlood flood-opacity="0" result="BackgroundImageFix"/><feColorMatrix in="SourceAlpha" result="hardAlpha" type="matrix" values="0 0 0 0 0 0 0 0 0 0 0 0 0 0 0 0 0 0 127 0"/><feOffset dy="2"/><feGaussianBlur stdDeviation="1"/><feComposite in2="hardAlpha" operator="out"/><feColorMatrix type="matrix" values="0 0 0 0 0 0 0 0 0 0 0 0 0 0 0 0 0 0 0.3 0"/><feBlend in2="BackgroundImageFix" mode="normal" result="effect1_dropShadow_248_959"/><feBlend in="SourceGraphic" in2="effect1_dropShadow_248_959" mode="normal" result="shape"/></filter><g filter="url(#a)"><rect fill="#fff" height="35" rx="17.5" width="35" x="2"/><path d="m26.3809 17.25c0 3.3906-2.4883 6.207-5.7422 6.6992v-4.7304h1.5859l.3008-1.9688h-1.8867v-1.2578c0-.5469.2734-1.0664 1.1211-1.0664h.8476v-1.668s-.7656-.1367-1.5312-.1367c-1.5313 0-2.543.957-2.543 2.6523v1.4766h-1.7227v1.9688h1.7227v4.7304c-3.2539-.4922-5.7148-3.3086-5.7148-6.6992 0-3.7461 3.0351-6.7812 6.7812-6.7812s6.7813 3.0351 6.7813 6.7812z" fill="#381e8b"/></g></svg>