<svg fill="none" height="40" viewBox="0 0 154 40" width="154" xmlns="http://www.w3.org/2000/svg"><path d="m27.3911 30.4153c0-.4528-.3019-.7547-.9056-.9056v-.3019c.3018 0 1.4339.0755 1.7358.0755.2264 0 1.3585-.0755 1.6604-.0755v.3019c-.5284.1509-.8302.4528-.8302.9056v5.6605c0 1.8113.9811 2.7924 3.0188 2.7924 1.8113 0 3.1698-.8302 3.1698-2.7169v-5.8114c0-.4529-.3019-.7547-.9057-.9057v-.2264c.2264 0 1.1321.0755 1.434.0755s1.2075-.0755 1.4339-.0755v.3019c-.6792.1509-.9056.4528-.9056.9056v5.5095c0 2.4906-1.4339 3.9246-4.5284 3.9246-2.8679 0-4.3774-1.283-4.3774-3.6226zm12.3772 8.9809c.6792-.1509.9056-.4528.9056-.9056v-7.8488c0-.6793-.3773-.9811-.9811-1.1321v-.3018h2.1887l6.7925 7.9997v-6.7926c0-.4528-.3018-.7547-.9056-.9056v-.3019c.2264 0 1.132.0755 1.4339.0755s1.2075-.0755 1.434-.0755v.3019c-.6793.151-.9812.4528-.9812.9056v9.4338h-.3774c-.2264-.0755-.7547-.3019-1.5094-1.1321l-6.1133-7.0944v6.9435c0 .4528.2265.7547.9057.9056v.3019c-.2264 0-1.1321-.0755-1.434-.0755s-1.2075.0755-1.4339.0755zm53.7351-2.1132h.3019c.151.6038.4529 1.1321.9811 1.434.4529.3773 1.283.5283 1.8868.5283 1.3585 0 2.2641-.6793 2.2641-1.7359 0-1.132-1.132-1.6603-2.415-2.3395-.9812-.5284-2.9434-1.283-2.9434-3.1698 0-1.7359 1.3585-2.8679 3.4717-2.8679 1.4339 0 2.0377.3774 3.0184.3019v2.1132h-.3015c-.3773-1.283-1.5094-1.6604-2.7924-1.6604-1.434 0-1.8868.8302-1.8868 1.5849 0 1.1321 1.1321 1.7358 2.4151 2.3396 1.4339.6038 3.0186 1.4339 3.0186 3.2452 0 1.7359-1.3583 2.9434-3.7734 2.9434-1.434 0-2.3396-.4528-3.0943-.5283zm29.2076-1.9622-2.793-4.4529c-.453-.7547-.83-1.2075-1.358-1.3585v-.3019c.377 0 1.434.0755 1.66.0755.302 0 1.359-.0755 1.811-.0755v.3019c-.377.0755-.528.2264-.528.5283 0 .2264.151.5283.302.8302.151.2264 2.038 3.3962 2.038 3.3962l1.962-3.3962c.226-.3773.302-.6792.302-.9056s-.151-.3774-.453-.3774v-.3774c.302 0 1.057.0755 1.283.0755s1.057-.0755 1.359-.0755v.3019c-.755.3019-1.208.9811-1.661 1.7359l-2.49 4.2264m.151-.5283v3.5472c0 .3773.301.8302.905.9056v.3019c-.302 0-1.434-.0755-1.736-.0755s-1.358.0755-1.735.0755v-.3019c.603-.1509.905-.5283.905-.9056v-3.3962m-51.3942-5.8869h6.4907c.2264 0 .5283 0 .7547-.1509h.3019l-.0755 2.1132h-.3019c-.2264-.6793-.5283-1.2076-1.7358-1.2076h-2.7924v3.7737h2.1886c.3019 0 .6793 0 .8302-.0755.4529-.0755.6793-.3774.8302-.8302h.3019v2.6415h-.3019c-.151-.4529-.3019-.7547-.8302-.8302-.1509-.0755-.5283-.0755-.8302-.0755h-2.1886v4.302h3.0943c1.3585 0 1.7358-.5284 2.0377-1.3585h.3019l-.3019 2.1887c-.9811-.0755-1.5849-.0755-2.7169-.0755h-3.2453c-.3019 0-1.4339.0755-1.8113.0755v-.3019c.6038-.151.9056-.3774.9056-.9811v-7.9998c0-.5283-.3019-.8301-.9056-.9056zm-16.6036 1.283c0-.5283-.3019-.8302-.9057-.9811v-.3019c.3774 0 1.4339.0755 1.8113.0755.3019 0 1.434-.0755 1.8113-.0755v.3019c-.6038.1509-.9811.3774-.9811.9811v7.9243c0 .5283.3019.8302.9811.9811v.3019c-.3773 0-1.4339-.0755-1.8113-.0755-.3019 0-1.4339.0755-1.8113.0755v-.3019c.6793-.151.9812-.3774.9812-.9811zm49.2838 0c0-.5283-.302-.8302-.906-.9811v-.3019c.377 0 1.509.0755 1.811.0755s1.434-.0755 1.811-.0755v.3019c-.603.1509-.905.3774-.905.9811v7.9243c0 .5283.302.8302.905.9811v.3019c-.377 0-1.433-.0755-1.811-.0755-.302 0-1.434.0755-1.811.0755v-.3019c.679-.151.906-.3774.906-.9811zm9.056-1.2075c-3.547 0-4.151-.0755-4.83-.151v2.1132h.302c.301-.9811.83-1.2075 1.509-1.2075h2.264v8.3016c0 .5284-.302.8302-.981.9812v.3018c.377 0 1.509-.0754 1.811-.0754s1.434.0754 1.812.0754v-.3018c-.604-.151-.982-.4529-.982-.9812v-8.3016h2.189c.679 0 1.208.2264 1.509 1.2075h.302v-2.1132c-.83.0755-1.358.151-4.905.151zm-28.4526 9.1318c0 .5283.3019.8302.9811.9811v.3019c-.3774 0-1.5094-.0755-1.8113-.0755s-1.3585.0755-1.7359.0755v-.3019c.6038-.1509.9057-.3773.9057-.9811v-7.9997c0-.5283-.3019-.8302-.9057-.9057v-.3019c.3774 0 1.434.0755 1.7359.0755.5283 0 1.9622-.0755 2.566-.0755 2.4905 0 3.8491 1.0566 3.8491 2.7925 0 1.3584-1.0566 2.3396-2.6415 2.7169 0 0 .3774.2264.7547.6038.4529.5283 1.6604 2.1887 2.1132 2.7924.4529.6038 1.1321 1.283 1.8114 1.283v.2264c-.3019.0755-.8302.151-1.2076.151-.8301 0-1.5094-.3019-2.1886-1.0566-.6038-.6793-1.5094-2.1132-2.1132-2.8679-.3774-.4528-.8302-.8302-1.5849-.9811-.1509 0-.3019-.0755-.4528-.0755zm0-4.2265c.3019.0755.8302.0755 1.283.0755 1.9622 0 2.566-1.132 2.566-2.1132 0-1.4339-.9057-2.2641-2.6415-2.2641-.3773 0-.8302.0755-1.2075.1509zm-24.7543-3.6981c-.2265-.5283-.6038-.9057-1.2076-.9811v-.3019c.3774 0 1.6604.0755 1.9623.0755.2264 0 1.3585-.0755 1.7358-.0755v.3019c-.3019.0754-.7547.2264-.7547.6038 0 .2264.1509.6037.4528 1.2075l2.717 6.1133 2.566-6.1133c.2264-.5283.3773-.9057.3773-1.1321 0-.3019-.3018-.5283-.7547-.6038v-.3773c.3019 0 1.1321.0754 1.4339.0754.2265 0 1.2076-.0754 1.5849-.0754v.3019c-.6037.1509-1.0565.5283-1.3584 1.3584l-3.7737 8.83h-.8301zm9.6601-27.84873c-.4528-.98111-1.1321-1.660365-2.1887-1.886783v-.528309c.6793 0 3.0189.075469 3.5472.075469.4528 0 2.7169-.075469 3.4717-.075469v.528309c-.6038.150942-1.3585.452833-1.3585 1.132053 0 .45284.3019 1.13206.8302 2.26411l5.1321 11.62245 4.8303-11.62245c.3773-.90564.6792-1.66036.6792-2.18867 0-.60378-.6038-1.056584-1.3584-1.207529v-.528309c.6792 0 2.1886.075469 2.7169.075469.4528 0 2.2641-.075469 3.0188-.075469v.528309c-1.2075.301879-1.9622 1.056579-2.6414 2.565999l-7.0945 16.75455h-1.5849zm-68.6802 16.75463c.90564-.2265 1.58489-.6038 1.58489-1.6604v-15.32061c0-.98111-.60378-1.433948-1.58489-1.660366v-.603782c.45284 0 2.566.075472 3.09431.075472.60378 0 2.79242-.075472 3.24526-.075472v.528309c-.90564.226411-1.58489.603779-1.58489 1.660359v6.49066h11.47152v-6.41518c0-1.05659-.6038-1.509421-1.5849-1.660366v-.603782c.4528 0 2.6414.075472 3.2452.075472.5283 0 2.6415-.075472 3.1698-.075472v.528309c-.9056.226411-1.5849.603779-1.5849 1.660359v15.32059c0 .9811.6038 1.434 1.5849 1.6604v.5283c-.4528 0-2.6415-.0755-3.1698-.0755-.6038 0-2.7169.0755-3.2452.0755v-.4528c.9056-.2265 1.5849-.6038 1.5849-1.6604v-7.2454h-11.47152v7.2454c0 1.0566.60378 1.4339 1.58489 1.6604v.5283c-.45284 0-2.71695-.0755-3.24526-.0755s-2.566.0755-3.09431.0755zm132.227 0c1.207-.2265 1.811-.6793 1.811-1.7359v-15.24511c0-1.05659-.679-1.509421-1.811-1.660366v-.603782c.679 0 2.792.075472 3.396.075472.981 0 3.623-.226414 5.736-.226414 7.019 0 11.32 3.92458 11.32 9.88656 0 5.81144-4.452 10.11294-11.697 10.11294-2.114 0-4.529-.1509-5.51-.1509-.604 0-2.566.0755-3.245.0755zm4.981-.9812c.755.151 2.038.2265 3.094.2265 5.887 0 8.981-3.5472 8.981-8.5281 0-5.13214-3.245-8.75447-8.754-8.75447-1.132 0-2.566.07547-3.321.22641zm-84.6024-.8301c0 .9811.6792 1.5849 1.8113 1.8113v.5283c-.6793 0-2.7924-.0755-3.4717-.0755-.5283 0-2.6414.0755-3.3207.0755v-.5283c1.1321-.2264 1.7358-.7547 1.7358-1.8113v-15.0942c0-.90564-.5283-1.509422-1.7358-1.73584v-.603782c.6793 0 2.717.075473 3.3207.075473.9811 0 3.6982-.1509418 4.8303-.1509418 4.7548 0 7.3963 1.9622508 7.3963 5.2830908 0 2.64147-1.9622 4.37742-4.9812 5.1321 0 0 .6793.3774 1.3585 1.2076.8302.9811 3.1698 4.3019 4.0755 5.434s2.1132 2.4151 3.3962 2.4151v.4528c-.6038.1509-1.5849.2264-2.3396.2264-1.5849 0-2.8679-.6038-4.151-2.1132-1.0565-1.283-2.9433-4.0755-4-5.434-.6793-.9057-1.5094-1.5849-3.0189-1.8113-.3018-.0755-.6037-.0755-.9056-.151zm0-7.99977c.6038.07547 1.5849.15094 2.4905.15094 3.6982 0 4.8303-2.11319 4.8303-4.00005 0-2.64147-1.8113-4.30195-4.9812-4.30195-.6793 0-1.6604.07547-2.3396.22642zm62.3394 7.99977c0 .9811.68 1.5849 1.812 1.8113v.5283c-.68 0-2.793-.0755-3.397-.0755-.528 0-2.641.0755-3.32.0755v-.5283c1.132-.2264 1.736-.7547 1.736-1.8113v-15.0942c0-.90564-.529-1.509422-1.736-1.73584v-.603782c.679 0 2.717.075473 3.32.075473.982 0 3.699-.1509418 4.755-.1509418 4.755 0 7.397 1.9622508 7.397 5.2830908 0 2.64147-1.963 4.37742-4.982 5.1321 0 0 .68.3774 1.359 1.2076.83.9811 3.17 4.3019 4.075 5.434.906 1.1321 2.114 2.4151 3.397 2.4151v.4528c-.604.1509-1.585.2264-2.34.2264-1.585 0-2.868-.6038-4.151-2.1132-1.057-1.283-2.943-4.0755-4-5.434-.679-.9057-1.509-1.5849-3.019-1.8113-.302-.0755-.604-.0755-.906-.151zm0-7.99977c.604.07547 1.585.15094 2.491.15094 3.698 0 4.83-2.11319 4.83-4.00005 0-2.64147-1.811-4.30195-4.981-4.30195-.679 0-1.66.07547-2.34.22642zm-91.019 9.81107c1.283-.3019 1.9622-1.132 2.415-2.1886l6.3397-15.24518c.3019-.60378.6038-1.8867782.6038-1.8867782h1.8113s.3019 1.2829982.6038 1.9622582l6.7171 15.2451c.4528 1.0566.9811 1.8113 2.3395 2.1132v.5283c-.7547 0-2.9433-.0754-3.4716-.0754s-2.6415.0754-3.3962.0754v-.5283c.9811-.2264 1.283-.7547 1.283-1.2075 0-.3774-.151-.9056-.3774-1.3585l-1.4339-3.2452h-7.3964l-1.283 3.3207c-.1509.3774-.3018.9056-.3018 1.283 0 .5283.3018.9811 1.3584 1.283v.5283c-.6792 0-2.415-.0755-2.7924-.0755l-2.8679.0755zm12.6035-7.3963-3.1697-7.32086-2.9434 7.32086zm50.1876 7.3963c1.283-.3019 1.9623-1.132 2.4151-2.1886l6.3397-15.24518c.3018-.60378.6037-1.8867782.6037-1.8867782h1.8113s.3019 1.2829982.6038 1.9622582l6.7173 15.2451c.453 1.0566.981 1.8113 2.339 2.1132v.5283c-.754 0-2.943-.0754-3.471-.0754-.529 0-2.642.0754-3.396.0754v-.5283c.981-.2264 1.283-.7547 1.283-1.2075 0-.3774-.151-.9056-.378-1.3585l-1.434-3.2452h-7.3961l-1.283 3.3207c-.151.3774-.3019.9056-.3019 1.283 0 .5283.3019.9811 1.3585 1.283v.5283c-.6793 0-2.4151-.0755-2.7925-.0755l-2.8679.0755v-.6038zm12.5281-7.3963-3.1698-7.32086-2.9433 7.32086z" fill="#c3b8f2"/></svg>