<svg fill="none" height="39" viewBox="0 0 39 39" width="39" xmlns="http://www.w3.org/2000/svg" xmlns:xlink="http://www.w3.org/1999/xlink"><filter id="a" color-interpolation-filters="sRGB" filterUnits="userSpaceOnUse" height="39" width="39" x="0" y="0"><feFlood flood-opacity="0" result="BackgroundImageFix"/><feColorMatrix in="SourceAlpha" result="hardAlpha" type="matrix" values="0 0 0 0 0 0 0 0 0 0 0 0 0 0 0 0 0 0 127 0"/><feOffset dy="2"/><feGaussianBlur stdDeviation="1"/><feComposite in2="hardAlpha" operator="out"/><feColorMatrix type="matrix" values="0 0 0 0 0 0 0 0 0 0 0 0 0 0 0 0 0 0 0.3 0"/><feBlend in2="BackgroundImageFix" mode="normal" result="effect1_dropShadow_248_965"/><feBlend in="SourceGraphic" in2="effect1_dropShadow_248_965" mode="normal" result="shape"/></filter><g filter="url(#a)"><rect fill="#fff" height="35" rx="17.5" width="35" x="2"/><path d="m16.209 22.5h-2.543v-8.1758h2.543zm-1.2852-9.2695c-.7929 0-1.4492-.6836-1.4492-1.5039 0-.793.6563-1.4493 1.4492-1.4493.8203 0 1.4766.6563 1.4766 1.4493 0 .8203-.6563 1.5039-1.4766 1.5039zm10.7735 9.2695h-2.5157v-3.9648c0-.9571-.0273-2.1602-1.3398-2.1602s-1.5039 1.0117-1.5039 2.0781v4.0469h-2.543v-8.1758h2.4336v1.1211h.0274c.3554-.6289 1.1757-1.3125 2.4062-1.3125 2.5703 0 3.0625 1.6953 3.0625 3.8828v4.4844z" fill="#381e8b"/></g></svg>