<?xml version="1.0" encoding="utf-8"?>
<svg viewBox="123.8029 47.8564 887.4222 243.2" xmlns="http://www.w3.org/2000/svg">
  <defs/>
  <clipPath id="a">
    <path d="m0 0h1694.42v304.18h-1694.42z"/>
  </clipPath>
  <clipPath id="b">
    <path d="m0 0h1694.42v304.18h-1694.42z"/>
  </clipPath>
  <g clip-path="url(#a)" transform="matrix(1, 0, 0, 1, -20.081234277505192, 27.466885022325584)">
    <g clip-path="url(#b)" transform="matrix(0.625639, 0, 0, 0.625639, 143.884112, 41.840096)">
      <g fill="#fff" data-darkreader-inline-fill="" style="--darkreader-inline-fill: #181a1b;">
        <path d="m75.86 0h154.27c6.5 0 11.77 5.27 11.77 11.77v13.47c0 6.5-5.27 11.77-11.77 11.77h-154.27c-6.5 0-11.77-5.27-11.77-11.77v-13.47c0-6.5 5.27-11.77 11.77-11.77"/>
        <path d="m11.77 54.16h282.45c6.5 0 11.77 5.27 11.77 11.77v13.47c0 6.5-5.27 11.77-11.77 11.77h-282.45c-6.5-.01-11.77-5.28-11.77-11.78v-13.47c0-6.49 5.27-11.76 11.77-11.76"/>
        <path d="m11.77 107.41h144.35c6.5 0 11.77 5.27 11.77 11.77v13.47c0 6.5-5.27 11.77-11.77 11.77h-144.35c-6.5-0-11.77-5.27-11.77-11.77v-13.47c0-6.5 5.27-11.77 11.77-11.77"/>
        <g transform="matrix(1, 0, 0, 1, -179.94208, -29.09239)">
          <path d="M 651.79 191.16 L 613.41 191.16 L 613.41 246.53 L 648.86 246.53 Q 680.35 246.53 680.35 220.16 Q 680.35 191.16 651.79 191.16 Z M 613.41 113.81 L 613.41 164.64 L 641.09 164.64 Q 656.77 164.64 664.97 158.27 Q 673.17 151.9 673.17 139.16 Q 673.17 126.41 664.97 120.11 Q 656.77 113.81 639.78 113.81 Z M 648.86 276.12 L 574.88 276.12 L 574.88 84.22 L 639.78 84.22 Q 674.35 84.22 693.02 97.48 Q 711.7 110.74 711.7 136.81 Q 711.7 150.29 704.6 160.69 Q 697.49 171.09 684.16 176.36 Q 701.01 180.03 709.8 191.82 Q 718.58 203.61 718.58 220.16 Q 718.58 247.7 700.64 261.91 Q 682.7 276.12 648.86 276.12 Z M 776.78 276.12 L 738.4 276.12 L 738.4 133.44 L 774.14 133.44 L 775.76 154.54 Q 786.74 130.81 807.25 130.81 Q 812.23 130.81 817.5 132.42 L 813.4 166.55 L 799.34 166.11 Q 783.08 166.11 776.78 179.73 Z M 871.39 133.44 L 871.39 276.12 L 832.86 276.12 L 832.86 133.44 Z M 871.39 70.45 L 871.39 99.31 L 832.86 99.31 L 832.86 70.45 Z M 987.76 187.79 Q 987.76 175.19 981.98 168.09 Q 976.19 160.98 965.2 160.98 Q 954.22 160.98 947.92 168.89 Q 941.62 176.8 940.15 190.57 L 940.59 191.3 L 987.76 191.3 Z M 968.28 279.34 Q 937.52 279.34 918.99 259.86 Q 900.46 240.38 900.46 209.32 L 900.46 204.05 Q 900.46 182.81 908.29 166.26 Q 916.13 149.7 930.85 140.4 Q 945.57 131.1 964.91 131.1 Q 993.62 131.1 1009.59 148.31 Q 1025.55 165.52 1025.55 195.55 L 1025.55 216.5 L 940.45 216.5 L 940.15 217.38 Q 941.18 231.88 949.68 240.74 Q 958.17 249.61 971.36 249.61 Q 984.54 249.61 992.89 247.19 Q 1001.24 244.77 1011.93 238.91 L 1022.33 262.64 L 1022.33 262.79 Q 1013.1 270.41 999.11 274.87 Q 985.12 279.34 968.28 279.34 Z M 1083.06 276.12 L 1044.24 276.12 L 1044.24 160.54 L 1023 160.54 L 1023 133.44 L 1044.24 133.44 L 1044.24 117.62 Q 1044.24 93.6 1058.01 80.64 Q 1071.78 67.67 1096.97 67.67 Q 1105.47 67.67 1118.21 70.45 L 1114.99 99.02 Q 1105.47 97.7 1102.1 97.7 Q 1083.06 97.7 1083.06 117.62 L 1083.06 133.44 L 1111.48 133.44 L 1111.48 160.54 L 1083.06 160.54 Z M 1167.55 70.45 L 1167.55 276.12 L 1129.03 276.12 L 1129.03 70.45 Z M 1203.36 309.08 L 1210.69 309.81 Q 1226.8 309.81 1233.25 293.4 L 1237.64 282.42 L 1187.1 139.89 L 1228.41 139.89 L 1252.44 222.65 L 1254.05 230.56 L 1254.78 230.56 L 1282.03 139.89 L 1323.48 139.89 L 1265.62 303.95 Q 1262.25 312.3 1258.52 318.31 Q 1254.78 324.31 1249.36 329.59 Q 1238.23 340.13 1218.01 340.13 Q 1211.71 340.13 1198.97 337.06 Z M 1468.34 276.12 L 1455.31 234.66 L 1387.92 234.66 L 1374.89 276.12 L 1336.07 276.12 L 1402.13 84.22 L 1441.54 84.22 L 1507.31 276.12 Z M 1421.32 129.05 L 1397.45 204.49 L 1445.93 204.49 L 1422.2 129.05 Z M 1559.79 84.22 L 1559.79 276.12 L 1521.41 276.12 L 1521.41 84.22 Z"/>
        </g>
      </g>
      <g>
        <path d="m195.91 107.41h98.31c6.5 0 11.77 5.27 11.77 11.77v13.47c0 6.5-5.27 11.77-11.77 11.77h-98.31c-6.5 0-11.77-5.27-11.77-11.77v-13.47c0-6.5 5.27-11.77 11.77-11.77" fill="#4cd1ff" data-darkreader-inline-fill="" style="--darkreader-inline-fill: #00769e;"/>
      </g>
      <path d="m11.77 160.67h98.31c6.5 0 11.77 5.27 11.77 11.77v13.47c0 6.5-5.27 11.77-11.77 11.77h-98.31c-6.5-.01-11.77-5.28-11.77-11.78v-13.47c0-6.5 5.27-11.77 11.77-11.77" fill="#fdc148" data-darkreader-inline-fill="" style="--darkreader-inline-fill: #785101;"/>
      <path d="m149.87 160.67h144.35c6.5 0 11.77 5.27 11.77 11.77v13.47c0 6.5-5.27 11.77-11.77 11.77h-144.35c-6.5 0-11.77-5.27-11.77-11.77v-13.47c0-6.5 5.27-11.77 11.77-11.77" fill="#fff" data-darkreader-inline-fill="" style="--darkreader-inline-fill: #181a1b;"/>
      <path d="m11.77 213.92h282.45c6.5 0 11.77 5.27 11.77 11.77v13.47c0 6.5-5.27 11.77-11.77 11.77h-282.45c-6.5 0-11.77-5.27-11.77-11.77v-13.47c0-6.5 5.27-11.77 11.77-11.77" fill="#fff" data-darkreader-inline-fill="" style="--darkreader-inline-fill: #181a1b;"/>
      <path d="m75.86 267.18h154.27c6.5 0 11.77 5.27 11.77 11.77v13.47c0 6.5-5.27 11.77-11.77 11.77h-154.27c-6.5 0-11.77-5.27-11.77-11.77v-13.47c0-6.5 5.27-11.77 11.77-11.77" fill="#fff" data-darkreader-inline-fill="" style="--darkreader-inline-fill: #181a1b;"/>
    </g>
  </g>
</svg>