<svg fill="none" height="40" viewBox="0 0 40 40" width="40" xmlns="http://www.w3.org/2000/svg"><path d="m0 20c0-11.04569 8.95431-20 20-20 11.0457 0 20 8.95431 20 20 0 11.0457-8.9543 20-20 20h-20z" fill="#c3b8f2"/><path d="m27.8125 10.9375h-4.0625c-.7102.0013-1.412.1538-2.0585.4475-.6466.2937-1.2233.7217-1.6915 1.2556-.4682-.5339-1.0449-.9619-1.6915-1.2556-.6465-.2937-1.3483-.4462-2.0585-.4475h-4.0625c-.5801 0-1.1366.2305-1.5468.6407s-.6407.9667-.6407 1.5468v11.25c0 .5801.2305 1.1366.6407 1.5468s.9667.6407 1.5468.6407h4.0625c.663 0 1.2989.2634 1.7678.7322.4688.4689.7322 1.1048.7322 1.7678h2.5c0-.663.2634-1.2989.7322-1.7678.4689-.4688 1.1048-.7322 1.7678-.7322h4.0625c.5801 0 1.1366-.2305 1.5468-.6407s.6407-.9667.6407-1.5468v-11.25c0-.5801-.2305-1.1366-.6407-1.5468s-.9667-.6407-1.5468-.6407zm-11.5625 13.125h-3.75v-10.625h3.75c.663 0 1.2989.2634 1.7678.7322.4688.4689.7322 1.1048.7322 1.7678v8.7969c-.7594-.441-1.6219-.6728-2.5-.6719zm11.25 0h-3.75c-.8781-.0009-1.7406.2309-2.5.6719v-8.7969c0-.663.2634-1.2989.7322-1.7678.4689-.4688 1.1048-.7322 1.7678-.7322h3.75z" fill="#4d308c"/></svg>