<svg fill="none" height="48" viewBox="0 0 121 48" width="121" xmlns="http://www.w3.org/2000/svg"><g fill="#c3b8f2"><path clip-rule="evenodd" d="m33.3536 0c-3.0721 0-5.3341 2.38421-5.3341 5.38007 0 3.19429 2.048 5.68563 5.3341 5.68563s5.334-2.49134 5.334-5.68563c0-2.99586-2.262-5.38007-5.334-5.38007zm0 1.52836c2.1397 0 3.0413 1.87995 3.0413 3.85171 0 2.04795-.7944 4.15702-3.0413 4.15702-2.2467 0-3.0417-2.10907-3.0417-4.15702 0-1.97176.9019-3.85171 3.0417-3.85171z" fill-rule="evenodd"/><path d="m77.6952 38.3711c.627 0 1.2538.2903 1.7276.6114l.764-1.1159c-.5042-.4889-1.4828-.9323-2.7054-.9323-1.9408 0-3.3927 1.1617-3.3927 2.5983 0 1.3769.8176 2.037 1.8132 2.8408l.097.0783c.1527.1201.324.2435.5023.3721.8207.5915 1.7903 1.2904 1.7903 2.2571 0 1.0085-.7796 1.4824-1.6659 1.4824-.963 0-1.6204-.4432-2.1855-.8559l-.7799 1.2227c.7947.7337 2.0328 1.0699 3.149 1.0699 2.4146 0 3.6985-1.5588 3.6985-2.9038 0-1.3145-.764-2.2162-2.2011-3.3625l-.1528-.1209-.1163-.0918c-1.0903-.8606-1.7325-1.3675-1.7325-2.0189 0-.6267.4886-1.131 1.3902-1.131z"/><path d="m47.345 47.8167-3.9739-10.546 2.2927-.3056c.9476 2.7204 1.8799 5.4411 2.8122 8.5283h.0307c.9781-3.0872 1.9715-5.8079 2.9649-8.5283l1.8495.3056-4.2184 10.546z"/><path d="m17.159 37.1177v6.1444c0 2.0939.6113 3.24 2.3232 3.24 1.6354 0 2.2927-1.3908 2.2927-3.1178v-6.2666h1.9257v6.6486c0 2.7054-1.7424 4.2337-4.2796 4.2337-2.9038 0-4.4171-1.4214-4.4171-4.3406v-6.5417z"/><path d="m36.1568 47.8167h-1.5588l-.2455-.2949c-1.9663-2.3617-3.9313-4.7218-5.8682-7.3776h-.0304v7.6725h-1.7273v-10.699h1.5744c2.0479 2.4456 4.0805 4.8758 6.098 7.6267h.031v-7.6267h1.7268z"/><path d="m41.4595 47.8167h-2.1548v-10.699h2.1548z"/><path d="m57.4166 38.5545h3.5916v-1.4368h-5.7465v10.699h6.4039v-1.4368h-4.249v-3.4541h3.5152v-1.4368h-3.5152z"/><path clip-rule="evenodd" d="m64.1562 37.1177h3.7142c2.0482 0 3.4237.9783 3.4237 2.7972 0 1.5894-.7948 2.5064-1.8033 3.1024l2.5371 4.5703-2.2622.4124-2.1702-4.4628h-1.2842v4.2795h-2.1551zm2.1551 4.983h.8712c1.4826 0 1.9565-1.1467 1.9565-1.926 0-1.2075-.8559-1.6202-1.712-1.6202h-1.1157z" fill-rule="evenodd"/><path d="m83.2148 47.8167h2.1551v-10.699h-2.1551z"/><path d="m90.7035 38.5545v9.2622h2.1548v-9.2622h3.3015v-1.4368h-8.7575v1.4368z"/><path d="m100.544 47.8167v-4.4781l-3.2862-6.0679 2.4146-.3056c.7486 1.5436 1.4826 3.0874 2.2316 4.9366.759-1.7016 1.532-3.1446 2.293-4.5668l.198-.3698 1.773.3056-3.469 6.0679v4.4781z"/><path d="m47.6147 11.0351-2.6287-4.44751-2.5374 4.44751-1.9408-.3363 3.4388-5.62448-2.9499-4.737992 2.2469-.3055663 1.9715 3.4233983 1.9564-3.4233983 1.88.3055663-2.858 4.539302 3.7292 5.82317z"/><path d="m54.4793 1.6199h3.5766v-1.43655h-5.7317v10.69875h2.1551v-4.31018h3.5152v-1.43629h-3.5152z"/><g clip-rule="evenodd" fill-rule="evenodd"><path d="m60.1172 5.38007c0-2.99586 2.262-5.38007 5.3338-5.38007 3.0726 0 5.334 2.38421 5.334 5.38007 0 3.19429-2.0477 5.68563-5.334 5.68563-3.2859 0-5.3338-2.49134-5.3338-5.68563zm8.3751 0c0-1.97176-.9016-3.85171-3.0413-3.85171-2.1398 0-3.0414 1.87995-3.0414 3.85171 0 2.04795.7947 4.15702 3.0414 4.15702 2.2466 0 3.0413-2.10907 3.0413-4.15702z"/><path d="m77.066.18335h-3.7144v10.69875h2.1553v-4.27949h1.2839l2.1705 4.46309 2.262-.4124-2.5374-4.57029c1.009-.59605 1.8037-1.51301 1.8037-3.10275 0-1.81884-1.3754-2.79691-3.4236-2.79691zm-.6879 4.9827h-.8712v-3.54615h1.1157c.8561 0 1.7117.41298 1.7117 1.62043 0 .77939-.4739 1.92572-1.9562 1.92572z"/><path d="m87.0032.18335c4.356 0 5.8539 2.46093 5.8539 5.04355 0 3.53107-2.2622 5.6552-6.0523 5.6552h-3.5001v-10.69875zm-1.5434 9.26221h1.314c2.4612 0 3.7907-1.25348 3.7907-4.23374 0-2.21621-1.284-3.59192-3.5457-3.59192h-1.559z"/><path d="m.0585938 32.2841v.8239h8.9034462c4.06636 0 6.91016-1.7009 6.91016-5.3155 0-2.7905-2.2592-4.6243-5.3951-4.784v-.0529c2.4184-.5052 4.1458-2.0465 4.1458-4.4121 0-2.9501-2.3918-4.0396-6.11246-4.0396h-8.4518462v.8238c1.1960962.0797 2.0995262.2127 2.2059662.6908.10624.505.10624.9037.10624 1.6212v12.3324c0 .7172 0 1.116-.10624 1.621-.10644.4783-1.00987.6114-2.2059662.691zm8.4251762-.0529c-1.88716 0-2.36553-.5053-2.36553-3.0568v-5.4216h1.54147c2.12619 0 4.01319 1.1427 4.01319 4.3322 0 2.6313-1.1694 4.1462-3.18913 4.1462zm-.53172-9.3555h-1.83381v-7.495h1.46179c2.23253 0 3.32227 1.0365 3.32227 3.5882 0 2.9502-1.54158 3.9068-2.95025 3.9068z"/><path d="m16.4375 14.5039h9.3552c3.03 0 5.6877 1.4617 5.6877 4.7041 0 2.4185-1.6212 4.4117-3.9334 5.1827l2.7109 4.1724c1.2225 1.8607 2.5781 3.5882 3.3223 4.0665v.4784h-3.8271c-1.1129 0-2.2524-2.2751-3.5706-4.907-.5395-1.0771-1.1088-2.2138-1.7185-3.2788h-1.9669v5.0499c0 .7173 0 1.116.1064 1.621.1063.4783 1.0365.6114 2.2059.691v.8239h-8.3719v-.8239c1.1695-.0796 2.0998-.2127 2.206-.691.1063-.505.1063-.9037.1063-1.6209v-12.3325c0-.7174 0-1.1162-.1063-1.6212-.1062-.4781-1.0365-.6111-2.206-.6908zm6.0596 9.3819h1.8606c2.3387 0 3.1361-1.9934 3.1361-4.4918 0-2.8704-1.3023-3.8536-3.1361-3.8536h-1.8606z"/><path d="m43.1464 14.1848c-5.7142 0-10.0995 4.3586-10.0995 9.754 0 6.2193 4.8372 9.4882 9.1426 9.4882 5.3155 0 10.1794-3.9602 10.1794-10.0994 0-4.6776-3.7477-9.1428-9.2225-9.1428zm-.7177.9569c2.8437 0 5.8205 2.7107 5.8205 8.9299 0 4.9434-1.7008 8.3984-5.3687 8.3984-3.0032 0-5.7142-3.375-5.7142-9.6476 0-4.4914 1.8075-7.6807 5.2624-7.6807z"/><path d="m54.0898 23.9388c0-5.3954 4.3854-9.754 10.0996-9.754 5.475 0 9.2222 4.4652 9.2222 9.1428 0 6.1392-4.8639 10.0994-10.1791 10.0994-4.3055 0-9.1427-3.2689-9.1427-9.4882zm15.2027.1328c0-6.2192-2.9769-8.9299-5.8209-8.9299-3.4551 0-5.2623 3.1893-5.2623 7.6807 0 6.2726 2.7107 9.6476 5.7145 9.6476 3.6675 0 5.3687-3.455 5.3687-8.3984z"/></g><path d="m75.7762 16.0185c.1064.5051.1064.9037.1064 1.6212v12.3324c0 .7173 0 1.116-.1064 1.621-.1066.4783-1.0098.6114-2.2059.691v.8239h8.3717v-.8239c-1.1955-.0796-2.0993-.2127-2.2059-.691-.1063-.505-.1063-.9037-.1063-1.621v-5.9799h.4251l4.9171 6.8834c.1009.1364.1977.2702.2919.4002.7496 1.0351 1.3267 1.8322 2.3656 1.8322h3.5618v-.3987c-2.371-2.2498-5.3359-6.0408-7.8135-9.2087-.2443-.3125-.4842-.6192-.718-.9174l4.7575-4.9697c.0721-.0741.1446-.149.2173-.2242.892-.9224 1.8273-1.8896 2.7857-2.0616v-.8238h-5.4483v.8238c1.2225-.0267 2.2059.7707 1.0098 1.9668l-4.6242 4.7041c-.8241.8506-1.4355 1.0897-1.7278 1.0897v-5.4486c0-.7175 0-1.1161.1063-1.6212.1066-.4781 1.0104-.6111 2.2059-.6908v-.8238h-8.3717v.8238c1.1961.0797 2.0993.2127 2.2059.6908z"/><path d="m92.5156 32.2841c1.1694-.0796 2.0998-.2127 2.2059-.691.1064-.505.1064-.9037.1064-1.621v-12.3324c0-.7175 0-1.1161-.1064-1.6212-.1061-.4781-1.0365-.6111-2.2059-.6908v-.8238h13.0494v4.2787h-.717c-.399-1.8868-1.037-3.2956-2.897-3.2956h-3.3754v7.4419h2.2064c1.674 0 2.391-1.0365 2.391-2.5515h.718v6.1925h-.718c-.053-1.4617-.611-2.6577-2.391-2.6577h-2.2064v6.0332c0 2.0199.9834 2.1792 3.1624 2.1792 3.206 0 3.822-1.3181 4.832-3.4762.054-.1145.108-.2314.165-.3506h.717l-.797 4.8102h-14.1394z"/><path d="m115.157 15.1417c2.1 0 3.083 1.8072 3.561 3.4816h.718v-3.6414c0-.1325-.08-.292-.266-.3719-1.329-.372-2.631-.4252-4.359-.4252-3.667 0-6.192 1.8604-6.192 4.4917 0 2.339 1.648 3.8005 3.641 5.0763 3.721 2.4184 4.492 3.6144 4.492 5.3687 0 1.9401-1.542 3.3485-3.269 3.3485-2.259 0-3.775-1.8868-4.226-4.3057h-.718v4.0401c0 .2127.08.3188.186.3721 1.382.5315 2.844.8505 5.05.8505 3.801 0 7.043-1.7543 7.043-5.0232 0-2.0199-.851-3.5083-3.561-5.5546-.489-.3725-.947-.7086-1.369-1.0189-2.079-1.5278-3.309-2.4316-3.309-3.9779 0-1.9667 1.382-2.7107 2.578-2.7107z"/></g></svg>