<svg fill="none" height="96" viewBox="0 0 96 96" width="96" xmlns="http://www.w3.org/2000/svg"><path d="m0 48c0-26.5097 21.4903-48 48-48 26.5097 0 48 21.4903 48 48 0 26.5097-21.4903 48-48 48h-48z" fill="#fff"/><g fill="#8f7bd6"><path clip-rule="evenodd" d="m60.1015 70.1404c-.0775.0092-.1551.0146-.2327.0183-.0626.0018-.1255.0037-.188.0055-8.8124.0537-17.6255.0278-26.4394 0-2.8484-.0256-5.4566-2.4643-5.5026-5.4694-.0757-8.0245-.0113-16.0543-.0018-24.0694h14.7708c.0962-.0036.12-.0018.2143-.0131.6812-.0794 1.2885-.563 1.5209-1.2015.0666-.1865.1017-.2824.1108-.6314v-14.7732c4.936-.0037 9.8707-.0128 14.8068.0018 2.8595.0278 5.4731 2.5031 5.5027 5.5049.0333 10.7602.0055 21.518 0 32.2782l-6.2337-6.2318c1.0391-2.828.8824-6.0825-.458-8.7795-1.8146-3.6475-5.776-6.1155-9.8534-6.1543h-.142c-2.8097.0257-5.5952 1.1536-7.6184 3.105-2.5104 2.4237-3.7638 6.0712-3.2802 9.5173.6351 4.5299 4.351 8.4364 8.8069 9.3204 2.0286.4025 4.0963.1793 5.9735-.5279l7.5167 7.5167c.0534.0537.109.1072.1642.1569.1793.1606.3655.3029.5631.4266z" fill-rule="evenodd"/><path clip-rule="evenodd" d="m47.9976 44.317c-3.3372.0315-6.4809 2.5566-7.1768 5.8517-.5132 2.4237.2935 5.0838 2.0674 6.8171 2.0397 1.9899 5.2737 2.6488 7.9471 1.556 2.3608-.9652 4.1476-3.2286 4.517-5.7592.4577-3.1159-1.3217-6.437-4.1885-7.7771-.9878-.4614-2.0824-.6922-3.166-.6885zm3.8231 2.7709c1.3902.0904 2.3129 1.9621 1.2812 3.0899-.0168.0187-.0333.0351-.0516.0538l-5.4826 5.5378c-.7697.7493-2.1431.6995-2.8059-.2143-.0147-.0202-.0275-.0407-.0425-.059l-1.8457-2.7708c-.7624-1.196.2843-3.0754 1.8088-2.85.5078.0757.9728.3838 1.2647.803l.5905.886 3.8897-3.9302s.7493-.5612 1.3935-.5462z" fill-rule="evenodd"/><path clip-rule="evenodd" d="m40.6618 36.9312h-12.9238l.0055-.1588c.0904-.6885.142-.7123.528-1.1388l10.9649-11.0776c.1054-.098.1295-.1255.2477-.2085.2213-.1569.476-.2641.7419-.3102.142-.026.179-.0223.3231-.0296h.1126z" fill-rule="evenodd"/><path d="m57.0889 58.1342 10.7251 10.7251c.8345.875.5483 2.4958-.5481 2.9885-.6775.3066-1.5249.1347-2.0619-.3783l-10.7321-10.7305c1.0116-.7163 1.8976-1.5969 2.6176-2.6047z"/></g></svg>