<svg fill="none" height="96" viewBox="0 0 96 96" width="96" xmlns="http://www.w3.org/2000/svg"><path d="m0 48c0-26.5097 21.4903-48 48-48 26.5097 0 48 21.4903 48 48 0 26.5097-21.4903 48-48 48h-48z" fill="#fff"/><path d="m63.4779 24h-30.9559c-1.6846.0006-3.2998.6711-4.4898 1.8635-1.1899 1.1923-1.857 2.809-1.8542 4.4934v35.2729c0 1.6849.6677 3.3011 1.8566 4.495 1.1889 1.194 2.8024 1.8681 4.4874 1.8752h23.6644c.44-.0045.8513-.22 1.1056-.5792l12.2139-12.2139-.0002.0002c.0943-.0975.1662-.2142.2106-.3423.0724-.1566.1086-.3276.1054-.5v-28.0078c.0027-1.6844-.6643-3.301-1.8543-4.4934-1.1899-1.1923-2.8051-1.8629-4.4898-1.8635zm-25.2701 25.3096h-2.2111v3.3958c-.0056.3473-.1459.6789-.3916.9246-.2457.2456-.5773.386-.9246.3915-.3492 0-.684-.1388-.9308-.3855-.2468-.2468-.3853-.5816-.3853-.9306v-9.3974c0-.3489.1385-.6838.3853-.9305.2468-.2468.5816-.3856.9308-.3856h3.5273c1.3072 0 2.5151.6975 3.1687 1.8296.6536 1.1319.6536 2.5267 0 3.6588-.6536 1.1322-1.8615 1.8294-3.1687 1.8294zm14.0565 1.0529c.0019.971-.3828 1.9029-1.0694 2.5897-.6867.6866-1.6186 1.0713-2.5897 1.0694h-3.5536c-.349 0-.6838-.1388-.9306-.3856s-.3856-.5816-.3856-.9306v-9.4237c0-.3489.1388-.6838.3856-.9305.2468-.2468.5816-.3856.9306-.3856h3.5536c.9728.007 1.9036.3984 2.5889 1.0887.6854.6904 1.0702 1.6237 1.0702 2.5967zm1.8952 2.3427v-9.4237c0-.3489.1386-.6838.3854-.9305.247-.2468.5816-.3856.9308-.3856h5.9227c.4702 0 .9046.251 1.1398.658.235.4073.235.9092 0 1.3162-.2352.4072-.6696.6581-1.1398.6581h-4.6066v2.0796h3.0535c.3475.0054.6791.1459.9245.3916.2458.2455.3863.5771.3916.9245 0 .349-.1386.6838-.3856.9306-.2467.247-.5815.3856-.9305.3856h-3.0535v3.3958c0 .4702-.2508.9046-.6581 1.1396-.4072.2352-.9089.2352-1.3161 0-.4073-.235-.6581-.6694-.6581-1.1396zm3.3431 14.7936v-4.1064c.0047-.9875.401-1.9326 1.1017-2.6285.7007-.6958 1.6486-1.0852 2.6362-1.083h4.0799zm-7.8706-21.8482v4.7117c0 .2723-.1082.5334-.3008.726-.1925.1926-.4537.3008-.7259.3008h-2.2375v-6.7914h2.2375v-.0002c.2725.0069.5317.1191.723.313.1915.1938.3003.4543.3037.7268zm-10.3713 0c-.0021.2761-.1146.5401-.3123.7328-.1977.1928-.4644.2987-.7406.2937h-2.2111v-2.0532h2.2111c.2764-.0137.5461.0872.7455.2791.1995.1919.3106.4578.3074.7344z" fill="#8f7bd6"/></svg>