<svg fill="none" height="48" viewBox="0 0 108 48" width="108" xmlns="http://www.w3.org/2000/svg"><g fill="#c3b8f2"><path clip-rule="evenodd" d="m24.4887 18.7256c0 .8626.3055 3.7918 4.1513 3.7918 1.7611 0 2.9292-.7907 3.3785-1.4197.3234.8985 1.1142 1.4556 2.2104 1.4556 1.4197 0 2.2823-.7907 3.0011-1.7791l-.4313-.5571c-.066.0413-.1206.0797-.17.1144-.1657.1165-.2719.1911-.5488.1911-.7908 0-.9884-.7907-.9884-1.7791 0-.1683.013-.3921.028-.649.0202-.3465.0439-.7533.0439-1.166 0-.5332.017-1.126.0344-1.7348.0185-.6429.0374-1.3037.0374-1.9313 0-1.3478-.0718-2.6776-.6649-3.666-.7907-1.22201-2.1385-1.77911-4.0794-1.77911-2.8034 0-4.4387 1.58143-4.87 3.16291l.7188.4313c.5032-1.0603 1.5994-1.77916 2.8753-1.77916 1.3478 0 2.3183.66496 2.6238 1.65336.1976.557.1976.7188.1976 1.5814v.4313c-.4546.1423-.8283.2554-1.1743.36-1.0082.305-1.7822.5391-3.6418 1.2214-2.498.9165-2.7316 2.8214-2.7316 3.8458zm4.4388-2.5159c.5391-.2876 1.222-.5931 3.1089-1.1502v-.018h.0539v4.8162c-.7907.5391-1.6533.6649-2.2463.6649-1.833 0-2.1385-1.2759-2.1385-2.0666 0-1.0243.3594-1.8151 1.222-2.2463z" fill-rule="evenodd"/><path d="m.15625 17.6833c.125796 1.4556.125796 2.6596.125796 4.0793 1.455634.4852 3.001124.7548 4.852114.5032 2.01273 0 6.82894-.5391 6.82894-5.6608 0-3.055-1.7073-4.2052-3.52231-5.4272l-2.13853-1.41966c-1.86896-1.22202-2.73156-1.81505-2.73156-3.46836 0-1.22202.35942-2.80345 3.52228-2.80345 1.34781 0 2.60576.30551 3.16282.8626.4134.4313.7189 1.02434.7189 2.01273h.7188c-.0719-1.09622-.0719-1.32984-.0719-2.24635 0-.52714.032-1.10221.0533-1.48559.0106-.19168.0186-.33545.0186-.40134-1.1681-.16174-3.10895-.35942-4.63647-.35942-5.91239 0-6.397598 4.02546-6.397598 5.24747 0 2.49794 1.222018 3.71997 3.594158 5.30137l1.70723 1.1501.23362.1977.0483.0341c1.55649 1.0964 2.68326 1.8901 2.68326 3.7578 0 2.2104-1.27593 3.2347-3.95358 3.2347-1.27592 0-2.69562-.4313-3.28865-1.0962-.4313-.4313-.66492-1.0962-.66492-2.0127z"/><path d="m38.7395 8.74831c-.0621-.00392-.1221-.00875-.1797-.01451h.0539v-.03594h.1258z"/><path d="m38.7395 8.74831v.74027c.9884 0 1.4557.25159 1.6534.55712.2336.3774.3055 1.0962.3055 2.8753v4.2231c0 2.3722-.054 3.5942-.4853 4.0794-.3055.3594-.9344.593-1.5275.593v.7009c.2638-.013.4995-.027.7316-.0408.7326-.0435 1.4297-.085 2.8626-.085.8985 0 2.3182.0539 3.4683.1258v-.6649c-.557 0-1.1141-.2336-1.3478-.4313-.4313-.4133-.5571-1.0962-.5571-3.4145v-7.4399c.6111-.2875 1.4018-.59301 2.6777-.59301 1.851 0 2.8034.86261 3.0011 2.67761.1258 1.0963.1258 2.2104.1258 3.2348 0 .4299-.0212.95-.0406 1.4248-.0163.3985-.0313.765-.0313 1.0192-.0719 1.7791-.1258 2.5698-.5571 3.0011-.2695.1797-.7008.4134-1.4197.4852v.665c.7908-.054 2.2464-.1258 3.5223-.1258.9525 0 2.6058.0539 3.5223.1258v-.665c-.7009 0-1.1861-.2336-1.4197-.4313-.4313-.4133-.5571-1.0962-.5571-3.4144v-4.1513c0-.7547-.0719-2.0127-.1977-2.5698-.4672-2.13851-2.1205-3.36052-4.6904-3.36052-2.0127 0-3.4324.79071-4.1512 1.34781v-1.09622l-.3055-.19768c-.6649.28753-.9704.39536-1.8869.59304-.9754.18185-1.9812.25724-2.6957.21218z"/><path d="m57.7167 21.1337c-.3055.3953-.9345.593-1.5275.593l.018.629.1027-.0061c.8998-.0531 2.0297-.1197 3.743-.1197 1.1681 0 2.8214.0539 3.8458.1258v-.7189c-.5931 0-1.887-.0719-2.2464-.6649-.2336-.3594-.3055-1.2759-.3055-3.1628v-7.87125h3.1629v-1.77911h-3.1629v-2.73156c0-1.83302.1258-2.7675.7188-3.36054.3954-.35941.9884-.48521 1.4197-.48521 1.276 0 2.0128.66492 2.498 1.81505h.3594l1.4197-1.94085-.0719-.3055c-.8626-.66492-2.1745-1.15013-3.5942-1.15013-3.2167 0-5.1037 1.45563-5.6608 4.38487-.1617.91651-.2336 2.51591-.2336 3.79184-.3594.32347-1.0243.68289-1.815.98839v.79072h1.815v7.09848c0 2.3721-.0539 3.5941-.4852 4.0794z"/><path clip-rule="evenodd" d="m65.6418 15.4369c0 4.5107 2.5698 7.1883 6.8828 7.1883 5.2834 0 7.1883-4.0973 7.1883-7.6196 0-4.5107-2.5698-7.18831-6.8828-7.18831-5.3013 0-7.1883 4.09731-7.1883 7.61961zm5.0498-5.3193c.4852-.43135 1.1501-.66497 2.0127-.66497 3.4864 0 3.6481 4.76227 3.6661 5.73267 0 2.498-.5571 4.1872-1.7072 5.1756-.4853.4313-1.1502.6649-2.0128.6649-3.4683 0-3.666-4.7443-3.666-5.7327 0-2.4979.5571-4.1872 1.7072-5.1755z" fill-rule="evenodd"/><path d="m84.2775 8.4283c-1.0962.16174-2.1205.3055-3.1089.23362l.0359.07188v.91651c.9345 0 1.4197.17971 1.6533.48519.3055.3774.3055 1.0962.3055 2.8754v3.9535c0 2.4261-.0539 3.5942-.4852 4.0794-.3055.3594-.7368.5211-1.5275.593v.7189c1.1142-.1258 2.498-.1258 3.8458-.1258 1.1681 0 2.8573.0539 3.8457.1258v-.7908c-.6649.0719-1.8869 0-2.2463-.593-.2337-.3774-.3055-1.222-.3055-3.1089v-7.2602c.4313-.3055.9344-.4313 1.5275-.4313 1.2759 0 2.0127.611 2.3721 1.2759h.5931l1.222-2.21041v-.4313c-.6829-.5571-1.4018-.8626-2.498-.8626-1.5095 0-2.6237.68289-3.2886 1.34781v-1.22202l-.2337-.12579c-.2875.17971-.8446.35941-1.7072.48521z"/><path clip-rule="evenodd" d="m104.004.509531c-1.19.197876-2.124.353065-2.888.353065v-.017969h-.072v.575063c1.043.05391 1.33.17971 1.528.48521.305.4313.305 1.32984.305 3.10895v3.00112c-.593-.10782-1.581-.23362-2.731-.23362-3.0912 0-5.5353 1.45564-6.7573 4.02545-.4852 1.1681-.7188 2.4261-.7188 3.8458 0 4.2051 2.4979 6.8828 6.3976 6.8828 1.8865 0 3.2345-.7907 3.9535-1.3478v1.222l.359.1258c.306-.1258.863-.2336 1.582-.3594 1.096-.1798 2.12-.3056 3.037-.3056v-.7188c-.935 0-1.42-.2516-1.653-.5571-.234-.3594-.234-1.4555-.234-3.1627v-11.57332c0-1.86895 0-4.51074.126-5.660803l-.234-.1257949c-.074.0159944-.17.0430609-.287.0765069-.279.07929-.684.194434-1.24.282909-.162.026624-.319.052782-.473.078233zm-1.073 19.473969c-.665.4313-1.33.5571-2.318.5571-4.1333 0-4.6185-3.5941-4.5646-5.2295 0-3.9176 1.3478-5.80455 4.0796-5.80455 1.707 0 2.57.75475 2.803.98835z" fill-rule="evenodd"/><path d="m19.2412 22.6252c2.3183 0 3.4145-1.0962 3.8458-1.6533l-.3594-.6649c-.3595.2516-1.0244.5571-2.0128.5571-2.0666 0-2.4979-1.222-2.4979-3.4684v-7.43988h4.8162v-1.77911h-4.8162v-3.16286h-.593c-.8087 1.52752-1.5276 2.55185-2.6238 3.41445-.5032.39536-1.0603.68289-1.7791.98839v.5571h1.9049v.98841c-.0719 2.1385-.0719 3.9715-.0719 6.2179 0 .8087 0 2.2104.2337 2.8753.5391 1.7791 1.7431 2.5698 3.9535 2.5698z"/><path d="m89.9201 34.5039c.1617-.1617.4852-.2336.7188-.2336h.036v-.0359h.0719v-.4852c-.0947 0-.2431.0165-.3976.0337-.168.0187-.3433.0382-.465.0382-.4852.0718-.9705.0718-1.276.0718-.4852 0-1.4556 0-2.0127-.0718v.5571c.3774 0 .6649.1257.8626.4852 0 0 .1618.3594.2336.5571.0089.0178.0183.0361.0278.0546.0479.0933.098.1909.098.2509l2.9113 7.6016-.1977.5571c-.7368 1.9408-1.222 2.9292-2.3182 2.9292-.7009 0-1.1861-.2336-1.4197-.7907h-.2336l-.8626 1.0244v.2336c.5571.4852 1.222.7188 2.2104.7188 2.3721 0 3.0371-1.6533 3.5223-3.0011l3.4683-9.255c.4158-1.2164.8843-1.285 1.1569-1.3249.0455-.0067.0856-.0126.119-.0229v-.5571c-.1573 0-.411.0138-.6964.0293-.3665.0199-.7852.0426-1.1186.0426-.1693 0-.3552-.0221-.5209-.0418-.1333-.0158-.2536-.0301-.3417-.0301-.1977-.0719-.593-.0719-.7907-.0719v.5571c.2875 0 .5211.1079.7188.2337.1258.1258.1977.2336.1977.3594 0 .2516-.0359.3594-.2336.9165l-1.6533 4.8162c-.0581-.2325-.175-.5589-.3221-.9698-.0348-.0974-.0714-.1995-.1092-.3062l-1.3478-3.5222c-.0112-.0336-.022-.0658-.0323-.0967-.1391-.4161-.2014-.6024-.2014-.8199 0-.1257 0-.3055.1977-.4313z"/><path d="m60.1678 33.9728c-.6213.1185-1.2519.2387-1.8044.1717v.036h.0899v.6649c.5391 0 .8985.1078 1.0243.3055.1977.2336.1977.7188.1977 1.815v2.5699c0 1.5994 0 2.3182-.3055 2.6237-.1977.1617-.5032.3594-.9884.3594v.4852c.6649-.1258 1.5813-.1258 2.4439-.1258.7368 0 1.8511 0 2.4441.0719v-.4852c-.4313 0-1.186-.0719-1.4197-.4313-.1258-.2336-.1976-.7907-.1976-2.0127v-4.5826c.3234-.1797.6289-.3055.9883-.3055.8626 0 1.2939.3594 1.5276.7907h.3594l.7188-1.4197v-.3055c-.4313-.3594-.8626-.5571-1.5814-.5571-.9704 0-1.6354.4314-2.0667.8626v-.7907l-.1976-.0719c-.2337.1079-.5392.1798-1.0963.3056-.0454.0085-.0908.0172-.1364.0259z"/><path d="m13.1489 40.4882c.5571 1.7072 2.0666 2.498 4.6365 2.498 2.5518 0 4.0254-.7908 4.6005-2.3542.3594-1.0243.3594-2.3182.3594-3.4684v-3.666c0-1.5814 0-2.1385.3055-2.444.2696-.2337.5571-.3595.9884-.3595v-.5571c-.7907.1258-1.4736.1258-2.1385.1258-.3941 0-.7831-.0205-1.1449-.0397-.3147-.0166-.6088-.0321-.8679-.0321v.4852c.3774.0719.665.1797.8626.3055.2876.2336.3595.4852.3595 1.9408v4.7443c0 2.6058-.1798 4.313-3.109 4.313-2.8753 0-3.1089-1.6533-3.1089-4.2231v-4.313c0-1.5815 0-2.1386.3055-2.4441.2695-.2336.5571-.3594.9884-.3594v-.5571c-.665.1258-1.2939.1258-2.3183.1258-.593 0-1.6533-.0539-2.2463-.1258v.4852c.4313.0719.7368.1798.8626.3055.2875.2337.3594.4853.3594 1.9409v4.8701c0 .8626 0 1.9408.3055 2.8034z"/><path d="m36.1874 42.0697c-.2336.2336-.5391.2875-1.0243.3594v.4852c.4852-.0539 1.4556-.1258 2.3722-.1258.7907 0 1.7252 0 2.2104.0719v-.4313c-.5392 0-.8986-.1977-1.0963-.4313-.1258-.2337-.1976-.7907-.1976-2.0128v-2.6237c0-1.7072 0-3.0011.0719-3.5942l-.1977-.1976c-.2696.1078-.629.2336-.9884.3055-.7189.1258-1.7072.2695-2.0667.1977v.557c.665.054.8986.1618 1.0244.3595.1976.2336.1976.7907.1976 1.8869v2.5698c0 1.5994 0 2.3183-.3055 2.6238z"/><path d="m36.2593 30.9098c0 .6649.4313 1.0962 1.1502 1.0962.7188 0 1.204-.4313 1.222-1.1501 0-.6649-.4313-1.0962-1.1502-1.0962-.7368 0-1.222.4852-1.222 1.1501z"/><path d="m74.7168 42.0697c-.2336.2336-.5391.2875-1.0243.3594h-.036v.4852c.4853-.0539 1.4557-.1258 2.3722-.1258.7907 0 1.6892 0 2.2463.0719v-.4313c-.5391 0-.8985-.1977-1.0962-.4313-.1258-.2337-.1977-.7907-.1977-2.0128v-2.6237c0-1.7072 0-3.0011.0719-3.5942l-.1977-.1976c-.1976.1078-.6289.2336-.9883.3055-.7189.1258-1.7073.2695-2.0667.1977v.557c.6649.054.8985.1618 1.0243.3595.1977.2336.1977.7907.1977 1.8869v2.5698c0 1.5994 0 2.3182-.3055 2.6238z"/><path d="m74.7887 30.9098c0 .6649.4313 1.0962 1.1501 1.0962.7189 0 1.222-.4313 1.222-1.1501 0-.6649-.4313-1.0962-1.1501-1.0962-.7368 0-1.222.4852-1.222 1.1501z"/><path d="m66.1807 40.1827c.0539.4852.1258 1.4557.1258 2.3722.8626.3055 1.6533.3594 2.3721.3773 1.258 0 3.4684-.3594 3.4684-2.7315 0-1.3847-.9995-1.9977-1.786-2.4802l-.0291-.0178-1.222-.7188h-.0718c-.0138-.0097-.0275-.0194-.0414-.0292-.4203-.2971-.8752-.6186-.8752-1.1928 0-.7907.5032-1.1501 1.4197-1.1501.665 0 1.222.1797 1.4557.4852.2336.3055.3594.6649.3594 1.0243h.593c-.0719-.1977-.0719-1.0243-.0719-1.222 0-.2336 0-.8626.0719-1.0962-.593-.1078-1.6533-.2336-2.3721-.2336-.3954 0-1.258 0-1.8151.3055-.8446.4313-1.2759 1.222-1.2759 2.2463 0 1.2939.7907 1.887 1.4556 2.3183l1.276.7907c.7188.4313 1.1501.7547 1.1501 1.4197 0 .8446-.5391 1.2759-1.5275 1.2759h-.1258c-.7907 0-1.222-.1618-1.5815-.5931-.2336-.2336-.3594-.6649-.3594-1.1501z"/><path d="m85.4238 41.9834.0216-.0216-.1438-.4133c-.2516.1617-.6829.3594-1.2759.3594-1.3478 0-1.5814-.8266-1.5814-2.2463v-4.7443h3.037v-1.0962h-3.037v-2.0128h-.4313c-.5571.9884-1.0423 1.6533-1.7073 2.2104-.3594.2337-.6649.3954-1.1501.5931v.3594h1.222v4.5466c0 .4673 0 1.3838.1258 1.815.2875 1.1681 1.0783 1.6534 2.498 1.6534 1.4223 0 2.1068-.6864 2.4224-1.0028z"/><path d="m44.2204 33.7851v.4493c-.3055 0-.593.1078-.7907.3055-.1258.0719-.1258.1797-.1258.3055 0 .2516.0359.4313.2336.9165l1.222 3.2347c.0809.2516.1528.4673.2134.6492.0607.182.1101.3302.146.4471l1.7791-4.313c.0439-.1513.0812-.2734.1123-.3749.0832-.2727.1214-.3976.1214-.5416 0-.1258-.1258-.2876-.1977-.3595-.1258-.1078-.4134-.2336-.7189-.2336v-.4852c.1396 0 .3033.0193.4612.0379.1469.0173.2888.034.4014.034.3235.0719.6111.0719.9166.0719.3582 0 .7688-.0233 1.1224-.0434.2673-.0152.5019-.0285.6567-.0285v.5571c-.3235 0-.7189.1977-.9166.5571-.135.2078-.192.3375-.2299.4239-.0277.0629-.0452.1029-.0756.1332-.0214.043-.0458.0774-.0673.1078-.0325.0459-.0584.0826-.0584.1258l-3.2348 7.1883-.9165.1977-2.9292-7.3141c0-.0719-.0539-.1797-.1258-.3055-.036-.1258-.1079-.3235-.2337-.5571-.298-.5796-.7182-.5641-.8808-.5581-.0138.0006-.0258.001-.0357.001v-.5571c.1141 0 .3385.0113.6092.025.4117.0207.9305.0469 1.3317.0469.1662 0 .3632-.0154.575-.0319.2461-.0192.512-.04.7728-.04.2695-.0719.6649-.0719.8626-.0719z"/><path d="m26.1238 34.0187c-.6649.1258-1.3298.1977-1.815.1258v.018h.0539v.6829c.593-.0539.8985.1078 1.0243.3055.1977.2336.1977.7188.1977 1.815v2.5699c0 1.5275-.0719 2.3182-.3055 2.6237-.1977.2336-.629.3594-.9884.3594v.4313c.6649-.1258 1.0243-.1258 2.2463-.1258.611 0 1.5275 0 2.3183.1977v-.4313c-.3774 0-.7368-.1078-.8626-.2336-.2876-.3235-.3595-.7548-.3595-2.2104v-4.7803c.3595-.1617.9166-.3594 1.7073-.3594 1.1681 0 1.7611.5571 1.8869 1.7073.0719.6469.0719 1.4017.0719 2.0666v1.5814c-.0539 1.0962-.1258 1.6533-.3594 1.887-.1977.1078-.4852.2336-.9165.3055v.4313c.4672-.054 1.3837-.1258 2.2463-.1258.2965 0 .7099.0179 1.1232.0359s.8266.0359 1.1232.0359v-.4313c-.3774 0-.7368-.1078-.8626-.2336-.2876-.3234-.3595-.7547-.3595-2.2104v-2.6237c0-.5032-.0539-1.2939-.1257-1.6533-.3235-1.3478-1.3479-2.1386-3.0012-2.1386-1.204 0-2.1924.5032-2.6237.8626v-.7188l-.1977-.1258c-.4313.1618-.6649.2336-1.222.3594z"/><path clip-rule="evenodd" d="m49.7015 38.5294c0 2.8753 1.4916 4.4568 4.2231 4.4568 1.4736 0 2.6956-.5931 3.2707-1.4018l-.2336-.4313c-.5571.3595-1.1501.5571-2.1385.5571-1.7252 0-2.6957-.8446-3.0012-2.6237l-.0019-.0104c-.0537-.2862-.1239-.6603-.1239-1.1397h5.6608v-.5571c0-.7368-.0359-1.5815-.593-2.4441-.4852-.8626-1.5814-1.3478-2.8034-1.3478-4.1333 0-4.2591 4.4568-4.2591 4.942zm5.553-1.6353h-3.5223c.0719-.9345.3594-2.2464 1.7431-2.3183 1.5815 0 1.7792 1.222 1.7792 2.3183z" fill-rule="evenodd"/></g></svg>