<svg fill="none" height="96" viewBox="0 0 96 96" width="96" xmlns="http://www.w3.org/2000/svg"><path d="m0 48c0-26.5097 21.4903-48 48-48 26.5097 0 48 21.4903 48 48 0 26.5097-21.4903 48-48 48h-48z" fill="#fff"/><g fill="#8f7bd6"><path d="m35.8284 27.4h24.3432c1.0257 0 1.8572.8315 1.8572 1.8572v2.1255c0 1.0257-.8315 1.8573-1.8572 1.8573h-24.3432c-1.0256 0-1.8572-.8316-1.8572-1.8573v-2.1255c0-1.0257.8316-1.8572 1.8572-1.8572z"/><path d="m25.7152 36.24h44.5693c1.0257 0 1.8573.8316 1.8573 1.8572v2.1256c0 1.0256-.8316 1.8572-1.8573 1.8572h-44.5693c-1.0257-.0016-1.8573-.8332-1.8573-1.8588v-2.1255c0-1.0241.8316-1.8557 1.8573-1.8557z"/><path d="m25.7152 45.08h44.5693c1.0257 0 1.8573.8316 1.8573 1.8572v2.1255c0 1.0257-.8316 1.8573-1.8573 1.8573h-44.5693c-1.0257-.0016-1.8573-.8332-1.8573-1.8588v-2.1255c0-1.0241.8316-1.8557 1.8573-1.8557z"/><path d="m25.7152 53.92h44.5693c1.0257 0 1.8573.8316 1.8573 1.8573v2.1255c0 1.0256-.8316 1.8572-1.8573 1.8572h-44.5693c-1.0257-.0015-1.8573-.8331-1.8573-1.8588v-2.1255c0-1.0241.8316-1.8557 1.8573-1.8557z"/><path d="m35.8284 62.76h24.3432c1.0257 0 1.8572.8316 1.8572 1.8573v2.1255c0 1.0257-.8315 1.8573-1.8572 1.8573h-24.3432c-1.0256 0-1.8572-.8316-1.8572-1.8573v-2.1255c0-1.0257.8316-1.8573 1.8572-1.8573z"/></g></svg>