<svg fill="none" height="39" viewBox="0 0 39 39" width="39" xmlns="http://www.w3.org/2000/svg" xmlns:xlink="http://www.w3.org/1999/xlink"><filter id="a" color-interpolation-filters="sRGB" filterUnits="userSpaceOnUse" height="39" width="39" x="0" y="0"><feFlood flood-opacity="0" result="BackgroundImageFix"/><feColorMatrix in="SourceAlpha" result="hardAlpha" type="matrix" values="0 0 0 0 0 0 0 0 0 0 0 0 0 0 0 0 0 0 127 0"/><feOffset dy="2"/><feGaussianBlur stdDeviation="1"/><feComposite in2="hardAlpha" operator="out"/><feColorMatrix type="matrix" values="0 0 0 0 0 0 0 0 0 0 0 0 0 0 0 0 0 0 0.3 0"/><feBlend in2="BackgroundImageFix" mode="normal" result="effect1_dropShadow_248_963"/><feBlend in="SourceGraphic" in2="effect1_dropShadow_248_963" mode="normal" result="shape"/></filter><g filter="url(#a)"><rect fill="#fff" height="35" rx="17.5" width="35" x="2"/><path d="m26.7363 13.668c.3282 1.1484.3282 3.6093.3282 3.6093s0 2.4336-.3282 3.6094c-.164.6563-.6836 1.1485-1.3125 1.3125-1.1758.3008-5.8242.3008-5.8242.3008s-4.6758 0-5.8516-.3008c-.6289-.164-1.1484-.6562-1.3125-1.3125-.3281-1.1758-.3281-3.6094-.3281-3.6094s0-2.4609.3281-3.6093c.1641-.6563.6836-1.1758 1.3125-1.3399 1.1758-.3281 5.8516-.3281 5.8516-.3281s4.6484 0 5.8242.3281c.6289.1641 1.1485.6836 1.3125 1.3399zm-8.6679 5.8242 3.8828-2.2149-3.8828-2.2148z" fill="#381e8b"/></g></svg>