<?xml version="1.0" encoding="utf-8"?>
<svg viewBox="-177.5507 -7.9582 1418.4725 559.755" xmlns="http://www.w3.org/2000/svg">
  <defs>
    <clipPath id="clippath">
      <rect class="cls-2" width="1694.42" height="304.18"/>
    </clipPath>
    <clipPath id="clippath-1">
      <rect class="cls-2" width="1694.42" height="304.18"/>
    </clipPath>
    <style>.cls-1{clip-path:url(#clippath);}.cls-2{fill:none;}.cls-2,.cls-3,.cls-4,.cls-5,.cls-6{stroke-width:0px;}.cls-7{clip-path:url(#clippath-1);}.cls-3{fill-rule:evenodd;}.cls-3,.cls-4{fill:#4d308c;}.cls-5{fill:#4cd1ff;}.cls-6{fill:#fdc148;}</style>
  </defs>
  <g id="Layer_1-2" transform="matrix(0.9999999999999999, 0, 0, 0.9999999999999999, -177.55072286055565, 26.303778086658895)">
    <g id="Logo_text_-_purple">
      <g class="cls-1">
        <g class="cls-7">
          <path class="cls-4" d="m75.86,0h154.27c6.5,0,11.77,5.27,11.77,11.77v13.47c0,6.5-5.27,11.77-11.77,11.77H75.86c-6.5,0-11.77-5.27-11.77-11.77v-13.47C64.09,5.27,69.36,0,75.86,0"/>
          <path class="cls-4" d="m11.77,54.16h282.45c6.5,0,11.77,5.27,11.77,11.77v13.47c0,6.5-5.27,11.77-11.77,11.77H11.77C5.27,91.16,0,85.89,0,79.39v-13.47C0,59.43,5.27,54.16,11.77,54.16"/>
          <path class="cls-4" d="m11.77,107.41h144.35c6.5,0,11.77,5.27,11.77,11.77v13.47c0,6.5-5.27,11.77-11.77,11.77H11.77C5.27,144.42,0,139.15,0,132.65v-13.47C0,112.68,5.27,107.41,11.77,107.41"/>
          <path class="cls-5" d="m195.91,107.41h98.31c6.5,0,11.77,5.27,11.77,11.77v13.47c0,6.5-5.27,11.77-11.77,11.77h-98.31c-6.5,0-11.77-5.27-11.77-11.77v-13.47c0-6.5,5.27-11.77,11.77-11.77"/>
          <path class="cls-6" d="m11.77,160.67h98.31c6.5,0,11.77,5.27,11.77,11.77v13.47c0,6.5-5.27,11.77-11.77,11.77H11.77C5.27,197.67,0,192.4,0,185.9v-13.47c0-6.5,5.27-11.77,11.77-11.77"/>
          <path class="cls-4" d="m149.87,160.67h144.35c6.5,0,11.77,5.27,11.77,11.77v13.47c0,6.5-5.27,11.77-11.77,11.77h-144.35c-6.5,0-11.77-5.27-11.77-11.77v-13.47c0-6.5,5.27-11.77,11.77-11.77"/>
          <path class="cls-4" d="m11.77,213.92h282.45c6.5,0,11.77,5.27,11.77,11.77v13.47c0,6.5-5.27,11.77-11.77,11.77H11.77C5.27,250.93,0,245.66,0,239.16v-13.47c0-6.5,5.27-11.77,11.77-11.77"/>
          <path class="cls-4" d="m75.86,267.18h154.27c6.5,0,11.77,5.27,11.77,11.77v13.47c0,6.5-5.27,11.77-11.77,11.77H75.86c-6.5,0-11.77-5.27-11.77-11.77v-13.47c0-6.5,5.27-11.77,11.77-11.77"/>
          <path d="M 471.89 162.38 L 433.51 162.38 L 433.51 217.75 L 468.96 217.75 Q 500.45 217.75 500.45 191.38 Q 500.45 162.38 471.89 162.38 Z M 433.51 85.03 L 433.51 135.86 L 461.19 135.86 Q 476.87 135.86 485.07 129.49 Q 493.27 123.12 493.27 110.38 Q 493.27 97.63 485.07 91.33 Q 476.87 85.03 459.87 85.03 Z M 468.96 247.34 L 394.98 247.34 L 394.98 55.44 L 459.87 55.44 Q 494.44 55.44 513.12 68.7 Q 531.8 81.96 531.8 108.03 Q 531.8 121.51 524.69 131.91 Q 517.59 142.31 504.26 147.58 Q 521.1 151.24 529.89 163.04 Q 538.68 174.83 538.68 191.38 Q 538.68 218.92 520.74 233.13 Q 502.79 247.34 468.96 247.34 Z M 592.79 247.34 L 554.41 247.34 L 554.41 104.66 L 590.16 104.66 L 591.77 125.76 Q 602.75 102.03 623.26 102.03 Q 628.24 102.03 633.52 103.64 L 629.41 137.77 L 615.35 137.33 Q 599.09 137.33 592.79 150.95 Z M 685.13 104.66 L 685.13 247.34 L 646.6 247.34 L 646.6 104.66 Z M 685.13 41.67 L 685.13 70.53 L 646.6 70.53 L 646.6 41.67 Z M 799.69 159.01 Q 799.69 146.41 793.9 139.31 Q 788.12 132.2 777.13 132.2 Q 766.14 132.2 759.84 140.11 Q 753.54 148.02 752.08 161.79 L 752.52 162.52 L 799.69 162.52 Z M 780.21 250.56 Q 749.44 250.56 730.91 231.08 Q 712.38 211.6 712.38 180.54 L 712.38 175.27 Q 712.38 154.03 720.22 137.47 Q 728.06 120.92 742.78 111.62 Q 757.5 102.32 776.84 102.32 Q 805.55 102.32 821.51 119.53 Q 837.48 136.74 837.48 166.77 L 837.48 187.72 L 752.37 187.72 L 752.08 188.6 Q 753.11 203.1 761.6 211.96 Q 770.1 220.82 783.28 220.82 Q 796.46 220.82 804.81 218.41 Q 813.16 215.99 823.86 210.13 L 834.26 233.86 L 834.26 234.01 Q 825.03 241.63 811.04 246.09 Q 797.05 250.56 780.21 250.56 Z M 891.81 247.34 L 852.99 247.34 L 852.99 131.76 L 831.75 131.76 L 831.75 104.66 L 852.99 104.66 L 852.99 88.84 Q 852.99 64.82 866.76 51.85 Q 880.53 38.89 905.72 38.89 Q 914.22 38.89 926.96 41.67 L 923.74 70.24 Q 914.22 68.92 910.85 68.92 Q 891.81 68.92 891.81 88.84 L 891.81 104.66 L 920.22 104.66 L 920.22 131.76 L 891.81 131.76 Z M 974.03 41.67 L 974.03 247.34 L 935.51 247.34 L 935.51 41.67 Z M 1008.03 280.3 L 1015.35 281.03 Q 1031.46 281.03 1037.91 264.62 L 1042.3 253.64 L 991.77 111.11 L 1033.08 111.11 L 1057.1 193.87 L 1058.71 201.78 L 1059.44 201.78 L 1086.69 111.11 L 1128.14 111.11 L 1070.28 275.17 Q 1066.91 283.52 1063.18 289.53 Q 1059.44 295.53 1054.02 300.8 Q 1042.89 311.35 1022.68 311.35 Q 1016.38 311.35 1003.63 308.28 Z M 1269.37 247.34 L 1256.34 205.88 L 1188.95 205.88 L 1175.92 247.34 L 1137.1 247.34 L 1203.16 55.44 L 1242.57 55.44 L 1308.34 247.34 Z M 1222.35 100.27 L 1198.48 175.71 L 1246.96 175.71 L 1223.23 100.27 Z M 1356.74 55.44 L 1356.74 247.34 L 1318.36 247.34 L 1318.36 55.44 Z" style="fill: rgb(77, 48, 140);"/>
          <path d="M 969.21 519.6 L 969.21 499.557 L 983.702 499.557 L 983.702 501.922 L 971.862 501.922 L 971.862 508.061 L 982.95 508.061 L 982.95 510.412 L 971.862 510.412 L 971.862 517.235 L 984.167 517.235 L 984.167 519.6 Z M 987.49 519.6 L 987.49 505.08 L 989.704 505.08 L 989.704 507.145 Q 991.304 504.752 994.326 504.752 Q 995.638 504.752 996.739 505.224 Q 997.839 505.696 998.386 506.461 Q 998.933 507.227 999.152 508.28 Q 999.288 508.963 999.288 510.672 L 999.288 519.6 L 996.828 519.6 L 996.828 510.768 Q 996.828 509.264 996.54 508.519 Q 996.253 507.774 995.522 507.329 Q 994.79 506.885 993.806 506.885 Q 992.234 506.885 991.092 507.883 Q 989.951 508.881 989.951 511.67 L 989.951 519.6 Z M 1008.455 517.399 L 1008.81 519.573 Q 1007.771 519.791 1006.951 519.791 Q 1005.611 519.791 1004.873 519.368 Q 1004.135 518.944 1003.834 518.253 Q 1003.533 517.563 1003.533 515.348 L 1003.533 506.995 L 1001.728 506.995 L 1001.728 505.08 L 1003.533 505.08 L 1003.533 501.485 L 1005.98 500.008 L 1005.98 505.08 L 1008.455 505.08 L 1008.455 506.995 L 1005.98 506.995 L 1005.98 515.485 Q 1005.98 516.537 1006.11 516.838 Q 1006.24 517.139 1006.534 517.317 Q 1006.828 517.495 1007.375 517.495 Q 1007.785 517.495 1008.455 517.399 Z M 1020.779 514.924 L 1023.322 515.239 Q 1022.72 517.467 1021.093 518.698 Q 1019.466 519.928 1016.937 519.928 Q 1013.752 519.928 1011.885 517.966 Q 1010.019 516.004 1010.019 512.463 Q 1010.019 508.799 1011.906 506.776 Q 1013.793 504.752 1016.8 504.752 Q 1019.712 504.752 1021.558 506.735 Q 1023.404 508.717 1023.404 512.313 Q 1023.404 512.532 1023.39 512.969 L 1012.562 512.969 Q 1012.699 515.362 1013.916 516.633 Q 1015.132 517.905 1016.951 517.905 Q 1018.304 517.905 1019.261 517.194 Q 1020.218 516.483 1020.779 514.924 Z M 1012.699 510.946 L 1020.806 510.946 Q 1020.642 509.114 1019.877 508.198 Q 1018.701 506.776 1016.828 506.776 Q 1015.132 506.776 1013.977 507.911 Q 1012.822 509.045 1012.699 510.946 Z M 1026.404 519.6 L 1026.404 505.08 L 1028.619 505.08 L 1028.619 507.282 Q 1029.467 505.737 1030.185 505.245 Q 1030.902 504.752 1031.764 504.752 Q 1033.008 504.752 1034.293 505.545 L 1033.445 507.828 Q 1032.543 507.295 1031.641 507.295 Q 1030.834 507.295 1030.191 507.781 Q 1029.549 508.266 1029.275 509.127 Q 1028.865 510.44 1028.865 511.998 L 1028.865 519.6 Z M 1043.404 525.192 L 1043.131 522.881 Q 1043.938 523.1 1044.539 523.1 Q 1045.359 523.1 1045.852 522.827 Q 1046.344 522.553 1046.658 522.061 Q 1046.891 521.692 1047.41 520.229 Q 1047.479 520.024 1047.629 519.627 L 1042.119 505.08 L 1044.771 505.08 L 1047.793 513.489 Q 1048.381 515.088 1048.846 516.852 Q 1049.27 515.157 1049.857 513.543 L 1052.961 505.08 L 1055.422 505.08 L 1049.898 519.846 Q 1049.01 522.239 1048.518 523.141 Q 1047.861 524.358 1047.014 524.925 Q 1046.166 525.493 1044.99 525.493 Q 1044.279 525.493 1043.404 525.192 Z M 1056.597 512.34 Q 1056.597 508.307 1058.839 506.366 Q 1060.713 504.752 1063.406 504.752 Q 1066.4 504.752 1068.3 506.714 Q 1070.201 508.676 1070.201 512.135 Q 1070.201 514.938 1069.36 516.544 Q 1068.519 518.151 1066.913 519.039 Q 1065.306 519.928 1063.406 519.928 Q 1060.357 519.928 1058.477 517.973 Q 1056.597 516.018 1056.597 512.34 Z M 1059.127 512.34 Q 1059.127 515.129 1060.343 516.517 Q 1061.56 517.905 1063.406 517.905 Q 1065.238 517.905 1066.455 516.51 Q 1067.672 515.116 1067.672 512.258 Q 1067.672 509.565 1066.448 508.177 Q 1065.224 506.789 1063.406 506.789 Q 1061.56 506.789 1060.343 508.17 Q 1059.127 509.551 1059.127 512.34 Z M 1082.595 519.6 L 1082.595 517.467 Q 1080.9 519.928 1077.988 519.928 Q 1076.703 519.928 1075.589 519.436 Q 1074.474 518.944 1073.934 518.199 Q 1073.394 517.453 1073.175 516.373 Q 1073.025 515.649 1073.025 514.077 L 1073.025 505.08 L 1075.486 505.08 L 1075.486 513.133 Q 1075.486 515.061 1075.636 515.731 Q 1075.869 516.702 1076.621 517.255 Q 1077.373 517.809 1078.48 517.809 Q 1079.588 517.809 1080.558 517.242 Q 1081.529 516.674 1081.932 515.697 Q 1082.336 514.719 1082.336 512.86 L 1082.336 505.08 L 1084.797 505.08 L 1084.797 519.6 Z M 1088.645 519.6 L 1088.645 505.08 L 1090.859 505.08 L 1090.859 507.282 Q 1091.707 505.737 1092.425 505.245 Q 1093.143 504.752 1094.004 504.752 Q 1095.248 504.752 1096.533 505.545 L 1095.686 507.828 Q 1094.783 507.295 1093.881 507.295 Q 1093.074 507.295 1092.432 507.781 Q 1091.789 508.266 1091.516 509.127 Q 1091.106 510.44 1091.106 511.998 L 1091.106 519.6 Z M 1111.127 517.399 L 1111.483 519.573 Q 1110.443 519.791 1109.623 519.791 Q 1108.283 519.791 1107.545 519.368 Q 1106.807 518.944 1106.506 518.253 Q 1106.205 517.563 1106.205 515.348 L 1106.205 506.995 L 1104.401 506.995 L 1104.401 505.08 L 1106.205 505.08 L 1106.205 501.485 L 1108.652 500.008 L 1108.652 505.08 L 1111.127 505.08 L 1111.127 506.995 L 1108.652 506.995 L 1108.652 515.485 Q 1108.652 516.537 1108.782 516.838 Q 1108.912 517.139 1109.206 517.317 Q 1109.5 517.495 1110.047 517.495 Q 1110.457 517.495 1111.127 517.399 Z M 1123.477 514.924 L 1126.02 515.239 Q 1125.418 517.467 1123.791 518.698 Q 1122.164 519.928 1119.635 519.928 Q 1116.449 519.928 1114.583 517.966 Q 1112.717 516.004 1112.717 512.463 Q 1112.717 508.799 1114.604 506.776 Q 1116.49 504.752 1119.498 504.752 Q 1122.41 504.752 1124.256 506.735 Q 1126.102 508.717 1126.102 512.313 Q 1126.102 512.532 1126.088 512.969 L 1115.26 512.969 Q 1115.397 515.362 1116.613 516.633 Q 1117.83 517.905 1119.649 517.905 Q 1121.002 517.905 1121.959 517.194 Q 1122.916 516.483 1123.477 514.924 Z M 1115.397 510.946 L 1123.504 510.946 Q 1123.34 509.114 1122.574 508.198 Q 1121.399 506.776 1119.526 506.776 Q 1117.83 506.776 1116.675 507.911 Q 1115.52 509.045 1115.397 510.946 Z M 1127.463 519.6 L 1132.768 512.053 L 1127.86 505.08 L 1130.936 505.08 L 1133.164 508.485 Q 1133.793 509.455 1134.176 510.112 Q 1134.778 509.209 1135.283 508.512 L 1137.731 505.08 L 1140.67 505.08 L 1135.653 511.916 L 1141.053 519.6 L 1138.031 519.6 L 1135.051 515.088 L 1134.258 513.871 L 1130.444 519.6 Z M 1148.476 517.399 L 1148.832 519.573 Q 1147.793 519.791 1146.973 519.791 Q 1145.633 519.791 1144.894 519.368 Q 1144.156 518.944 1143.855 518.253 Q 1143.555 517.563 1143.555 515.348 L 1143.555 506.995 L 1141.75 506.995 L 1141.75 505.08 L 1143.555 505.08 L 1143.555 501.485 L 1146.002 500.008 L 1146.002 505.08 L 1148.476 505.08 L 1148.476 506.995 L 1146.002 506.995 L 1146.002 515.485 Q 1146.002 516.537 1146.132 516.838 Q 1146.262 517.139 1146.556 517.317 Q 1146.849 517.495 1147.396 517.495 Q 1147.807 517.495 1148.476 517.399 Z M 1158.67 519.6 L 1158.67 499.557 L 1161.131 499.557 L 1161.131 506.748 Q 1162.854 504.752 1165.479 504.752 Q 1167.092 504.752 1168.281 505.388 Q 1169.471 506.024 1169.983 507.145 Q 1170.496 508.266 1170.496 510.399 L 1170.496 519.6 L 1168.035 519.6 L 1168.035 510.399 Q 1168.035 508.553 1167.235 507.712 Q 1166.436 506.871 1164.973 506.871 Q 1163.879 506.871 1162.915 507.439 Q 1161.951 508.006 1161.541 508.977 Q 1161.131 509.948 1161.131 511.657 L 1161.131 519.6 Z M 1184.176 514.924 L 1186.719 515.239 Q 1186.117 517.467 1184.49 518.698 Q 1182.863 519.928 1180.334 519.928 Q 1177.148 519.928 1175.282 517.966 Q 1173.416 516.004 1173.416 512.463 Q 1173.416 508.799 1175.303 506.776 Q 1177.189 504.752 1180.197 504.752 Q 1183.109 504.752 1184.955 506.735 Q 1186.801 508.717 1186.801 512.313 Q 1186.801 512.532 1186.787 512.969 L 1175.959 512.969 Q 1176.096 515.362 1177.313 516.633 Q 1178.529 517.905 1180.348 517.905 Q 1181.701 517.905 1182.658 517.194 Q 1183.615 516.483 1184.176 514.924 Z M 1176.096 510.946 L 1184.203 510.946 Q 1184.039 509.114 1183.273 508.198 Q 1182.098 506.776 1180.225 506.776 Q 1178.529 506.776 1177.374 507.911 Q 1176.219 509.045 1176.096 510.946 Z M 1189.776 519.6 L 1189.776 505.08 L 1191.99 505.08 L 1191.99 507.282 Q 1192.838 505.737 1193.556 505.245 Q 1194.274 504.752 1195.135 504.752 Q 1196.379 504.752 1197.664 505.545 L 1196.817 507.828 Q 1195.914 507.295 1195.012 507.295 Q 1194.205 507.295 1193.563 507.781 Q 1192.92 508.266 1192.647 509.127 Q 1192.236 510.44 1192.236 511.998 L 1192.236 519.6 Z M 1209.067 514.924 L 1211.61 515.239 Q 1211.008 517.467 1209.381 518.698 Q 1207.754 519.928 1205.225 519.928 Q 1202.039 519.928 1200.173 517.966 Q 1198.307 516.004 1198.307 512.463 Q 1198.307 508.799 1200.194 506.776 Q 1202.08 504.752 1205.088 504.752 Q 1208 504.752 1209.846 506.735 Q 1211.692 508.717 1211.692 512.313 Q 1211.692 512.532 1211.678 512.969 L 1200.85 512.969 Q 1200.987 515.362 1202.203 516.633 Q 1203.42 517.905 1205.239 517.905 Q 1206.592 517.905 1207.549 517.194 Q 1208.506 516.483 1209.067 514.924 Z M 1200.987 510.946 L 1209.094 510.946 Q 1208.93 509.114 1208.164 508.198 Q 1206.989 506.776 1205.116 506.776 Q 1203.42 506.776 1202.265 507.911 Q 1201.11 509.045 1200.987 510.946 Z" style="fill: rgb(51, 51, 51);"/>
        </g>
      </g>
    </g>
  </g>
</svg>